solid a
facet normal 0.991444861373809 0.130526192220063 5.346677313645976e-19
  outer loop
    vertex 12.77274066103124 13.031823664342493 0.0
    vertex 12.799999999999988 12.824768428260484 1.9999999999999998
    vertex 12.799999999999988 12.824768428260484 0.0
  endloop
endfacet
facet normal 0.991444861373809 0.130526192220063 5.346677313645976e-19
  outer loop
    vertex 12.799999999999988 12.824768428260484 1.9999999999999998
    vertex 12.77274066103124 13.031823664342493 0.0
    vertex 12.77274066103124 13.031823664342493 1.9999999999999998
  endloop
endfacet
facet normal 0.3826834323650982 0.9238795325112834 0.0
  outer loop
    vertex 12.20705523608203 13.597509089291767 1.9999999999999998
    vertex 12.4 13.517588751288065 0.0
    vertex 12.20705523608203 13.597509089291767 0.0
  endloop
endfacet
facet normal 0.3826834323650982 0.9238795325112834 0.0
  outer loop
    vertex 12.4 13.517588751288065 0.0
    vertex 12.20705523608203 13.597509089291767 1.9999999999999998
    vertex 12.4 13.517588751288065 1.9999999999999998
  endloop
endfacet
facet normal -0.9238795325112882 -0.38268343236508673 0.0
  outer loop
    vertex 11.227259338968738 12.61771319217846 1.1999999999999995
    vertex 11.30717967697245 12.424768428260496 0.0
    vertex 11.30717967697245 12.424768428260496 1.1999999999999995
  endloop
endfacet
facet normal -0.9238795325112882 -0.38268343236508673 0.0
  outer loop
    vertex 11.30717967697245 12.424768428260496 0.0
    vertex 11.227259338968738 12.61771319217846 1.1999999999999995
    vertex 11.227259338968738 12.61771319217846 0.0
  endloop
endfacet
facet normal 0.6087614290087265 -0.7933533402912307 0.0
  outer loop
    vertex 12.56568542494924 12.259083003311263 1.1999999999999995
    vertex 12.399999999999995 12.131948105232933 0.0
    vertex 12.56568542494924 12.259083003311263 0.0
  endloop
endfacet
facet normal 0.6087614290087265 -0.7933533402912307 0.0
  outer loop
    vertex 12.399999999999995 12.131948105232933 0.0
    vertex 12.56568542494924 12.259083003311263 1.1999999999999995
    vertex 12.399999999999995 12.131948105232933 1.1999999999999995
  endloop
endfacet
facet normal 0.38268343236508673 -0.9238795325112882 0.0
  outer loop
    vertex 12.399999999999995 12.131948105232933 1.1999999999999995
    vertex 12.207055236082008 12.052027767229225 0.0
    vertex 12.399999999999995 12.131948105232933 0.0
  endloop
endfacet
facet normal 0.38268343236508673 -0.9238795325112882 0.0
  outer loop
    vertex 12.207055236082008 12.052027767229225 0.0
    vertex 12.399999999999995 12.131948105232933 1.1999999999999995
    vertex 12.207055236082008 12.052027767229225 1.1999999999999995
  endloop
endfacet
facet normal -0.9238795325112882 0.38268343236508673 0.0
  outer loop
    vertex -0.6928203230275479 13.224768428260493 1.9999999999999998
    vertex -0.7727406610312396 13.031823664342493 0.0
    vertex -0.7727406610312396 13.031823664342493 1.9999999999999998
  endloop
endfacet
facet normal -0.9238795325112882 0.38268343236508673 0.0
  outer loop
    vertex -0.7727406610312396 13.031823664342493 0.0
    vertex -0.6928203230275479 13.224768428260493 1.9999999999999998
    vertex -0.6928203230275479 13.224768428260493 0.0
  endloop
endfacet
facet normal 0.13052619222004955 0.9914448613738107 -5.346677313645984e-19
  outer loop
    vertex 11.999999999999998 13.62476842826048 1.1999999999999995
    vertex 12.20705523608203 13.597509089291767 0.0
    vertex 11.999999999999998 13.62476842826048 0.0
  endloop
endfacet
facet normal 0.13052619222004955 0.9914448613738107 -5.346677313645984e-19
  outer loop
    vertex 12.20705523608203 13.597509089291767 0.0
    vertex 11.999999999999998 13.62476842826048 1.1999999999999995
    vertex 12.20705523608203 13.597509089291767 1.9999999999999998
  endloop
endfacet
facet normal 0.13052619222004955 0.9914448613738107 -5.346677313645984e-19
  outer loop
    vertex 12.20705523608203 13.597509089291767 1.9999999999999998
    vertex 11.999999999999998 13.62476842826048 1.1999999999999995
    vertex 11.999999999999998 13.62476842826048 1.9999999999999998
  endloop
endfacet
facet normal 0.9238795325112883 -0.38268343236508645 0.0
  outer loop
    vertex 12.77274066103124 12.617713192178465 0.0
    vertex 12.692820323027549 12.424768428260505 1.1999999999999995
    vertex 12.692820323027549 12.424768428260505 0.0
  endloop
endfacet
facet normal 0.9238795325112883 -0.38268343236508645 0.0
  outer loop
    vertex 12.692820323027549 12.424768428260505 1.1999999999999995
    vertex 12.77274066103124 12.617713192178465 0.0
    vertex 12.77274066103124 12.617713192178465 1.1999999999999995
  endloop
endfacet
facet normal 0.7933533402912356 0.6087614290087202 0.0
  outer loop
    vertex 12.565685424949224 13.390453853209724 0.0
    vertex 12.692820323027549 13.224768428260493 1.9999999999999998
    vertex 12.692820323027549 13.224768428260493 0.0
  endloop
endfacet
facet normal 0.7933533402912356 0.6087614290087202 0.0
  outer loop
    vertex 12.692820323027549 13.224768428260493 1.9999999999999998
    vertex 12.565685424949224 13.390453853209724 0.0
    vertex 12.565685424949224 13.390453853209724 1.9999999999999998
  endloop
endfacet
facet normal 0.13052619222004957 -0.9914448613738107 0.0
  outer loop
    vertex 12.207055236082008 12.052027767229225 1.1999999999999995
    vertex 11.99999999999999 12.024768428260478 0.0
    vertex 12.207055236082008 12.052027767229225 0.0
  endloop
endfacet
facet normal 0.13052619222004957 -0.9914448613738107 0.0
  outer loop
    vertex 11.99999999999999 12.024768428260478 0.0
    vertex 12.207055236082008 12.052027767229225 1.1999999999999995
    vertex 11.99999999999999 12.024768428260478 1.1999999999999995
  endloop
endfacet
facet normal 0.7933533402912356 -0.6087614290087202 0.0
  outer loop
    vertex 12.692820323027549 12.424768428260505 0.0
    vertex 12.56568542494924 12.259083003311263 1.1999999999999995
    vertex 12.56568542494924 12.259083003311263 0.0
  endloop
endfacet
facet normal 0.7933533402912356 -0.6087614290087202 0.0
  outer loop
    vertex 12.56568542494924 12.259083003311263 1.1999999999999995
    vertex 12.692820323027549 12.424768428260505 0.0
    vertex 12.692820323027549 12.424768428260505 1.1999999999999995
  endloop
endfacet
facet normal -0.13052619222004952 0.9914448613738108 0.0
  outer loop
    vertex 11.792944763917982 13.597509089291751 1.1999999999999995
    vertex 11.999999999999998 13.62476842826048 0.0
    vertex 11.792944763917982 13.597509089291751 0.0
  endloop
endfacet
facet normal -0.13052619222004952 0.9914448613738108 0.0
  outer loop
    vertex 11.999999999999998 13.62476842826048 0.0
    vertex 11.792944763917982 13.597509089291751 1.1999999999999995
    vertex 11.999999999999998 13.62476842826048 1.1999999999999995
  endloop
endfacet
facet normal 1.0 6.661338147750937e-16 0.0
  outer loop
    vertex 11.999999999999998 9.825219214930499 1.1999999999999995
    vertex 11.999999999999998 0.4252192149304768 1.9999999999999998
    vertex 11.999999999999998 0.4252192149304768 1.1999999999999995
  endloop
endfacet
facet normal 1.0 6.661338147750937e-16 0.0
  outer loop
    vertex 11.999999999999998 0.4252192149304768 1.9999999999999998
    vertex 11.999999999999998 9.825219214930499 1.1999999999999995
    vertex 11.999999999999998 9.825219214930499 1.9999999999999998
  endloop
endfacet
facet normal -0.9914448613738089 0.1305261922200627 0.0
  outer loop
    vertex 11.227259338968747 13.03182366434253 1.1999999999999995
    vertex 11.199999999999994 12.824768428260489 0.0
    vertex 11.199999999999994 12.824768428260489 1.1999999999999995
  endloop
endfacet
facet normal -0.9914448613738089 0.1305261922200627 0.0
  outer loop
    vertex 11.199999999999994 12.824768428260489 0.0
    vertex 11.227259338968747 13.03182366434253 1.1999999999999995
    vertex 11.227259338968747 13.03182366434253 0.0
  endloop
endfacet
facet normal 0.9914448613738089 -0.1305261922200627 0.0
  outer loop
    vertex 12.799999999999988 12.824768428260484 0.0
    vertex 12.77274066103124 12.617713192178465 1.1999999999999995
    vertex 12.77274066103124 12.617713192178465 0.0
  endloop
endfacet
facet normal 0.9914448613738089 -0.1305261922200627 0.0
  outer loop
    vertex 12.77274066103124 12.617713192178465 1.1999999999999995
    vertex 12.799999999999988 12.824768428260484 0.0
    vertex 12.77274066103124 12.617713192178465 1.9999999999999998
  endloop
endfacet
facet normal 0.9914448613738089 -0.1305261922200627 0.0
  outer loop
    vertex 12.77274066103124 12.617713192178465 1.9999999999999998
    vertex 12.799999999999988 12.824768428260484 0.0
    vertex 12.799999999999988 12.824768428260484 1.9999999999999998
  endloop
endfacet
facet normal 0.0 0.0 -1.0
  outer loop
    vertex 11.227259338968747 13.03182366434253 0.0
    vertex 11.227259338968738 12.61771319217846 0.0
    vertex 11.199999999999994 12.824768428260489 0.0
  endloop
endfacet
facet normal 0.0 0.0 -1.0
  outer loop
    vertex 11.227259338968738 12.61771319217846 0.0
    vertex 11.227259338968747 13.03182366434253 0.0
    vertex 11.30717967697245 12.424768428260496 0.0
  endloop
endfacet
facet normal 0.0 0.0 -1.0
  outer loop
    vertex 11.30717967697245 12.424768428260496 0.0
    vertex 11.227259338968747 13.03182366434253 0.0
    vertex 11.307179676972444 13.224768428260493 0.0
  endloop
endfacet
facet normal 0.0 0.0 -1.0
  outer loop
    vertex 11.30717967697245 12.424768428260496 0.0
    vertex 11.307179676972444 13.224768428260493 0.0
    vertex 11.434314575050765 13.390453853209754 0.0
  endloop
endfacet
facet normal 0.0 0.0 -1.0
  outer loop
    vertex 11.30717967697245 12.424768428260496 0.0
    vertex 11.434314575050765 13.390453853209754 0.0
    vertex 11.434314575050754 12.259083003311241 0.0
  endloop
endfacet
facet normal 0.0 0.0 -1.0
  outer loop
    vertex 11.434314575050754 12.259083003311241 0.0
    vertex 11.434314575050765 13.390453853209754 0.0
    vertex 11.600000000000007 12.131948105232945 0.0
  endloop
endfacet
facet normal 0.0 0.0 -1.0
  outer loop
    vertex 11.600000000000007 12.131948105232945 0.0
    vertex 11.434314575050765 13.390453853209754 0.0
    vertex 11.59999999999999 13.517588751288026 0.0
  endloop
endfacet
facet normal 0.0 0.0 -1.0
  outer loop
    vertex 11.600000000000007 12.131948105232945 0.0
    vertex 11.59999999999999 13.517588751288026 0.0
    vertex 11.792944763917982 13.597509089291751 0.0
  endloop
endfacet
facet normal 0.0 0.0 -1.0
  outer loop
    vertex 11.600000000000007 12.131948105232945 0.0
    vertex 11.792944763917982 13.597509089291751 0.0
    vertex 11.792944763917971 12.052027767229225 0.0
  endloop
endfacet
facet normal 0.0 0.0 -1.0
  outer loop
    vertex 11.792944763917971 12.052027767229225 0.0
    vertex 11.792944763917982 13.597509089291751 0.0
    vertex 11.99999999999999 12.024768428260478 0.0
  endloop
endfacet
facet normal 0.0 0.0 -1.0
  outer loop
    vertex 11.99999999999999 12.024768428260478 0.0
    vertex 11.792944763917982 13.597509089291751 0.0
    vertex 11.999999999999998 13.62476842826048 0.0
  endloop
endfacet
facet normal 0.0 0.0 -1.0
  outer loop
    vertex 11.99999999999999 12.024768428260478 0.0
    vertex 11.999999999999998 13.62476842826048 0.0
    vertex 12.207055236082008 12.052027767229225 0.0
  endloop
endfacet
facet normal 0.0 0.0 -1.0
  outer loop
    vertex 12.207055236082008 12.052027767229225 0.0
    vertex 11.999999999999998 13.62476842826048 0.0
    vertex 12.20705523608203 13.597509089291767 0.0
  endloop
endfacet
facet normal 0.0 0.0 -1.0
  outer loop
    vertex 12.207055236082008 12.052027767229225 0.0
    vertex 12.20705523608203 13.597509089291767 0.0
    vertex 12.399999999999995 12.131948105232933 0.0
  endloop
endfacet
facet normal 0.0 0.0 -1.0
  outer loop
    vertex 12.399999999999995 12.131948105232933 0.0
    vertex 12.20705523608203 13.597509089291767 0.0
    vertex 12.4 13.517588751288065 0.0
  endloop
endfacet
facet normal 0.0 0.0 -1.0
  outer loop
    vertex 12.399999999999995 12.131948105232933 0.0
    vertex 12.4 13.517588751288065 0.0
    vertex 12.56568542494924 12.259083003311263 0.0
  endloop
endfacet
facet normal 0.0 0.0 -1.0
  outer loop
    vertex 12.56568542494924 12.259083003311263 0.0
    vertex 12.4 13.517588751288065 0.0
    vertex 12.565685424949224 13.390453853209724 0.0
  endloop
endfacet
facet normal 0.0 0.0 -1.0
  outer loop
    vertex 12.56568542494924 12.259083003311263 0.0
    vertex 12.565685424949224 13.390453853209724 0.0
    vertex 12.692820323027549 13.224768428260493 0.0
  endloop
endfacet
facet normal 0.0 0.0 -1.0
  outer loop
    vertex 12.56568542494924 12.259083003311263 0.0
    vertex 12.692820323027549 13.224768428260493 0.0
    vertex 12.692820323027549 12.424768428260505 0.0
  endloop
endfacet
facet normal 0.0 0.0 -1.0
  outer loop
    vertex 12.692820323027549 12.424768428260505 0.0
    vertex 12.692820323027549 13.224768428260493 0.0
    vertex 12.77274066103124 13.031823664342493 0.0
  endloop
endfacet
facet normal 0.0 0.0 -1.0
  outer loop
    vertex 12.692820323027549 12.424768428260505 0.0
    vertex 12.77274066103124 13.031823664342493 0.0
    vertex 12.77274066103124 12.617713192178465 0.0
  endloop
endfacet
facet normal 0.0 0.0 -1.0
  outer loop
    vertex 12.77274066103124 12.617713192178465 0.0
    vertex 12.77274066103124 13.031823664342493 0.0
    vertex 12.799999999999988 12.824768428260484 0.0
  endloop
endfacet
facet normal 0.9238795325112882 0.38268343236508673 0.0
  outer loop
    vertex 12.692820323027549 13.224768428260493 0.0
    vertex 12.77274066103124 13.031823664342493 1.9999999999999998
    vertex 12.77274066103124 13.031823664342493 0.0
  endloop
endfacet
facet normal 0.9238795325112882 0.38268343236508673 0.0
  outer loop
    vertex 12.77274066103124 13.031823664342493 1.9999999999999998
    vertex 12.692820323027549 13.224768428260493 0.0
    vertex 12.692820323027549 13.224768428260493 1.9999999999999998
  endloop
endfacet
facet normal -0.7933533402912306 0.6087614290087267 0.0
  outer loop
    vertex 11.434314575050765 13.390453853209754 1.1999999999999995
    vertex 11.307179676972444 13.224768428260493 0.0
    vertex 11.307179676972444 13.224768428260493 1.1999999999999995
  endloop
endfacet
facet normal -0.7933533402912306 0.6087614290087267 0.0
  outer loop
    vertex 11.307179676972444 13.224768428260493 0.0
    vertex 11.434314575050765 13.390453853209754 1.1999999999999995
    vertex 11.434314575050765 13.390453853209754 0.0
  endloop
endfacet
facet normal -0.991444861373809 -0.130526192220063 0.0
  outer loop
    vertex 11.199999999999994 12.824768428260489 1.1999999999999995
    vertex 11.227259338968738 12.61771319217846 0.0
    vertex 11.227259338968738 12.61771319217846 1.1999999999999995
  endloop
endfacet
facet normal -0.991444861373809 -0.130526192220063 0.0
  outer loop
    vertex 11.227259338968738 12.61771319217846 0.0
    vertex 11.199999999999994 12.824768428260489 1.1999999999999995
    vertex 11.199999999999994 12.824768428260489 0.0
  endloop
endfacet
facet normal -0.7933533402912357 -0.60876142900872 0.0
  outer loop
    vertex 11.30717967697245 12.424768428260496 1.1999999999999995
    vertex 11.434314575050754 12.259083003311241 0.0
    vertex 11.434314575050754 12.259083003311241 1.1999999999999995
  endloop
endfacet
facet normal -0.7933533402912357 -0.60876142900872 0.0
  outer loop
    vertex 11.434314575050754 12.259083003311241 0.0
    vertex 11.30717967697245 12.424768428260496 1.1999999999999995
    vertex 11.30717967697245 12.424768428260496 0.0
  endloop
endfacet
facet normal -0.6087614290087267 -0.7933533402912306 0.0
  outer loop
    vertex 11.600000000000007 12.131948105232945 1.1999999999999995
    vertex 11.434314575050754 12.259083003311241 0.0
    vertex 11.600000000000007 12.131948105232945 0.0
  endloop
endfacet
facet normal -0.6087614290087267 -0.7933533402912306 0.0
  outer loop
    vertex 11.434314575050754 12.259083003311241 0.0
    vertex 11.600000000000007 12.131948105232945 1.1999999999999995
    vertex 11.434314575050754 12.259083003311241 1.1999999999999995
  endloop
endfacet
facet normal -0.38268343236508645 -0.9238795325112883 0.0
  outer loop
    vertex 11.792944763917971 12.052027767229225 1.1999999999999995
    vertex 11.600000000000007 12.131948105232945 0.0
    vertex 11.792944763917971 12.052027767229225 0.0
  endloop
endfacet
facet normal -0.38268343236508645 -0.9238795325112883 0.0
  outer loop
    vertex 11.600000000000007 12.131948105232945 0.0
    vertex 11.792944763917971 12.052027767229225 1.1999999999999995
    vertex 11.600000000000007 12.131948105232945 1.1999999999999995
  endloop
endfacet
facet normal -0.9238795325112883 0.38268343236508645 0.0
  outer loop
    vertex 11.307179676972444 13.224768428260493 1.1999999999999995
    vertex 11.227259338968747 13.03182366434253 0.0
    vertex 11.227259338968747 13.03182366434253 1.1999999999999995
  endloop
endfacet
facet normal -0.9238795325112883 0.38268343236508645 0.0
  outer loop
    vertex 11.227259338968747 13.03182366434253 0.0
    vertex 11.307179676972444 13.224768428260493 1.1999999999999995
    vertex 11.307179676972444 13.224768428260493 0.0
  endloop
endfacet
facet normal -0.6087614290087265 0.7933533402912307 0.0
  outer loop
    vertex 11.434314575050765 13.390453853209754 1.1999999999999995
    vertex 11.59999999999999 13.517588751288026 0.0
    vertex 11.434314575050765 13.390453853209754 0.0
  endloop
endfacet
facet normal -0.6087614290087265 0.7933533402912307 0.0
  outer loop
    vertex 11.59999999999999 13.517588751288026 0.0
    vertex 11.434314575050765 13.390453853209754 1.1999999999999995
    vertex 11.59999999999999 13.517588751288026 1.1999999999999995
  endloop
endfacet
facet normal 0.9637801909311059 -0.2666978507015034 0.0
  outer loop
    vertex 12.77274066103124 12.617713192178465 1.1999999999999995
    vertex 11.999999999999998 9.825219214930499 1.9999999999999998
    vertex 11.999999999999998 9.825219214930499 1.1999999999999995
  endloop
endfacet
facet normal 0.9637801909311059 -0.2666978507015034 0.0
  outer loop
    vertex 11.999999999999998 9.825219214930499 1.9999999999999998
    vertex 12.77274066103124 12.617713192178465 1.1999999999999995
    vertex 12.77274066103124 12.617713192178465 1.9999999999999998
  endloop
endfacet
facet normal 0.7071067811865599 -0.7071067811865352 0.0
  outer loop
    vertex 11.999999999999998 0.4252192149304768 1.1999999999999995
    vertex 11.399999999999997 -0.174780785069539 1.9999999999999998
    vertex 11.399999999999997 -0.174780785069539 1.1999999999999995
  endloop
endfacet
facet normal 0.7071067811865599 -0.7071067811865352 0.0
  outer loop
    vertex 11.399999999999997 -0.174780785069539 1.9999999999999998
    vertex 11.999999999999998 0.4252192149304768 1.1999999999999995
    vertex 11.999999999999998 0.4252192149304768 1.9999999999999998
  endloop
endfacet
facet normal -0.13052619222004955 -0.9914448613738107 0.0
  outer loop
    vertex 11.99999999999999 12.024768428260478 1.1999999999999995
    vertex 11.792944763917971 12.052027767229225 0.0
    vertex 11.99999999999999 12.024768428260478 0.0
  endloop
endfacet
facet normal -0.13052619222004955 -0.9914448613738107 0.0
  outer loop
    vertex 11.792944763917971 12.052027767229225 0.0
    vertex 11.99999999999999 12.024768428260478 1.1999999999999995
    vertex 11.792944763917971 12.052027767229225 1.1999999999999995
  endloop
endfacet
facet normal -0.3826834323650981 0.9238795325112833 0.0
  outer loop
    vertex 11.59999999999999 13.517588751288026 1.1999999999999995
    vertex 11.792944763917982 13.597509089291751 0.0
    vertex 11.59999999999999 13.517588751288026 0.0
  endloop
endfacet
facet normal -0.3826834323650981 0.9238795325112833 0.0
  outer loop
    vertex 11.792944763917982 13.597509089291751 0.0
    vertex 11.59999999999999 13.517588751288026 1.1999999999999995
    vertex 11.792944763917982 13.597509089291751 1.1999999999999995
  endloop
endfacet
facet normal 0.6087614290087182 0.7933533402912372 0.0
  outer loop
    vertex 12.4 13.517588751288065 1.9999999999999998
    vertex 12.565685424949224 13.390453853209724 0.0
    vertex 12.4 13.517588751288065 0.0
  endloop
endfacet
facet normal 0.6087614290087182 0.7933533402912372 0.0
  outer loop
    vertex 12.565685424949224 13.390453853209724 0.0
    vertex 12.4 13.517588751288065 1.9999999999999998
    vertex 12.565685424949224 13.390453853209724 1.9999999999999998
  endloop
endfacet
facet normal 0.13052619222004955 -0.9914448613738107 0.0
  outer loop
    vertex 0.20705523608202725 12.052027767229225 1.1999999999999997
    vertex 1.127986593019159e-14 12.024768428260478 0.0
    vertex 0.20705523608202725 12.052027767229225 0.0
  endloop
endfacet
facet normal 0.13052619222004955 -0.9914448613738107 0.0
  outer loop
    vertex 1.127986593019159e-14 12.024768428260478 0.0
    vertex 0.20705523608202725 12.052027767229225 1.1999999999999997
    vertex 1.127986593019159e-14 12.024768428260478 1.1999999999999997
  endloop
endfacet
facet normal 0.0 -1.0 0.0
  outer loop
    vertex 11.399999999999997 -0.174780785069539 1.9999999999999998
    vertex 0.6000000000000045 -0.174780785069539 1.1999999999999997
    vertex 11.399999999999997 -0.174780785069539 1.1999999999999995
  endloop
endfacet
facet normal 0.0 -1.0 0.0
  outer loop
    vertex 0.6000000000000045 -0.174780785069539 1.1999999999999997
    vertex 11.399999999999997 -0.174780785069539 1.9999999999999998
    vertex 0.6000000000000045 -0.174780785069539 1.9999999999999998
  endloop
endfacet
facet normal 0.991444861373809 -0.130526192220063 0.0
  outer loop
    vertex 0.8000000000000098 12.824768428260489 0.0
    vertex 0.7727406610312622 12.61771319217846 1.1999999999999997
    vertex 0.7727406610312622 12.61771319217846 0.0
  endloop
endfacet
facet normal 0.991444861373809 -0.130526192220063 0.0
  outer loop
    vertex 0.7727406610312622 12.61771319217846 1.1999999999999997
    vertex 0.8000000000000098 12.824768428260489 0.0
    vertex 0.8000000000000098 12.824768428260489 1.1999999999999997
  endloop
endfacet
facet normal -0.9637801909311059 -0.2666978507015034 0.0
  outer loop
    vertex -0.7727406610312396 12.617713192178465 1.9999999999999998
    vertex 0.0 9.825219214930499 1.1999999999999997
    vertex 0.0 9.825219214930499 1.9999999999999998
  endloop
endfacet
facet normal -0.9637801909311059 -0.2666978507015034 0.0
  outer loop
    vertex 0.0 9.825219214930499 1.1999999999999997
    vertex -0.7727406610312396 12.617713192178465 1.9999999999999998
    vertex -0.7727406610312396 12.617713192178465 1.1999999999999997
  endloop
endfacet
facet normal -0.3826834323650982 0.9238795325112834 0.0
  outer loop
    vertex -0.39999999999999925 13.517588751288065 1.9999999999999998
    vertex -0.20705523608202725 13.597509089291767 0.0
    vertex -0.39999999999999925 13.517588751288065 0.0
  endloop
endfacet
facet normal -0.3826834323650982 0.9238795325112834 0.0
  outer loop
    vertex -0.20705523608202725 13.597509089291767 0.0
    vertex -0.39999999999999925 13.517588751288065 1.9999999999999998
    vertex -0.20705523608202725 13.597509089291767 1.9999999999999998
  endloop
endfacet
facet normal -0.9238795325112883 -0.38268343236508645 0.0
  outer loop
    vertex -0.7727406610312396 12.617713192178465 1.1999999999999997
    vertex -0.6928203230275479 12.424768428260505 0.0
    vertex -0.6928203230275479 12.424768428260505 1.1999999999999997
  endloop
endfacet
facet normal -0.9238795325112883 -0.38268343236508645 0.0
  outer loop
    vertex -0.6928203230275479 12.424768428260505 0.0
    vertex -0.7727406610312396 12.617713192178465 1.1999999999999997
    vertex -0.7727406610312396 12.617713192178465 0.0
  endloop
endfacet
facet normal 0.6087614290087267 -0.7933533402912306 0.0
  outer loop
    vertex 0.5656854249492462 12.259083003311241 1.1999999999999997
    vertex 0.39999999999999364 12.131948105232945 0.0
    vertex 0.5656854249492462 12.259083003311241 0.0
  endloop
endfacet
facet normal 0.6087614290087267 -0.7933533402912306 0.0
  outer loop
    vertex 0.39999999999999364 12.131948105232945 0.0
    vertex 0.5656854249492462 12.259083003311241 1.1999999999999997
    vertex 0.39999999999999364 12.131948105232945 1.1999999999999997
  endloop
endfacet
facet normal -1.0 6.661338147750937e-16 0.0
  outer loop
    vertex 0.0 9.825219214930499 1.9999999999999998
    vertex 0.0 0.4252192149304768 1.1999999999999997
    vertex 0.0 0.4252192149304768 1.9999999999999998
  endloop
endfacet
facet normal -1.0 6.661338147750937e-16 0.0
  outer loop
    vertex 0.0 0.4252192149304768 1.1999999999999997
    vertex 0.0 9.825219214930499 1.9999999999999998
    vertex 0.0 9.825219214930499 1.1999999999999997
  endloop
endfacet
facet normal 0.9238795325112882 -0.38268343236508673 0.0
  outer loop
    vertex 0.7727406610312622 12.61771319217846 0.0
    vertex 0.6928203230275536 12.424768428260496 1.1999999999999997
    vertex 0.6928203230275536 12.424768428260496 0.0
  endloop
endfacet
facet normal 0.9238795325112882 -0.38268343236508673 0.0
  outer loop
    vertex 0.6928203230275536 12.424768428260496 1.1999999999999997
    vertex 0.7727406610312622 12.61771319217846 0.0
    vertex 0.7727406610312622 12.61771319217846 1.1999999999999997
  endloop
endfacet
facet normal 0.3826834323650981 0.9238795325112833 0.0
  outer loop
    vertex 0.20705523608201595 13.597509089291751 1.1999999999999997
    vertex 0.40000000000001057 13.517588751288026 0.0
    vertex 0.20705523608201595 13.597509089291751 0.0
  endloop
endfacet
facet normal 0.3826834323650981 0.9238795325112833 0.0
  outer loop
    vertex 0.40000000000001057 13.517588751288026 0.0
    vertex 0.20705523608201595 13.597509089291751 1.1999999999999997
    vertex 0.40000000000001057 13.517588751288026 1.1999999999999997
  endloop
endfacet
facet normal 0.38268343236508645 -0.9238795325112883 0.0
  outer loop
    vertex 0.39999999999999364 12.131948105232945 1.1999999999999997
    vertex 0.20705523608202725 12.052027767229225 0.0
    vertex 0.39999999999999364 12.131948105232945 0.0
  endloop
endfacet
facet normal 0.38268343236508645 -0.9238795325112883 0.0
  outer loop
    vertex 0.20705523608202725 12.052027767229225 0.0
    vertex 0.39999999999999364 12.131948105232945 1.1999999999999997
    vertex 0.20705523608202725 12.052027767229225 1.1999999999999997
  endloop
endfacet
facet normal 0.9238795325112883 0.38268343236508645 0.0
  outer loop
    vertex 0.6928203230275536 13.224768428260493 0.0
    vertex 0.7727406610312508 13.03182366434253 1.1999999999999997
    vertex 0.7727406610312508 13.03182366434253 0.0
  endloop
endfacet
facet normal 0.9238795325112883 0.38268343236508645 0.0
  outer loop
    vertex 0.7727406610312508 13.03182366434253 1.1999999999999997
    vertex 0.6928203230275536 13.224768428260493 0.0
    vertex 0.6928203230275536 13.224768428260493 1.1999999999999997
  endloop
endfacet
facet normal -0.7933533402912356 0.6087614290087202 0.0
  outer loop
    vertex -0.5656854249492237 13.390453853209724 1.9999999999999998
    vertex -0.6928203230275479 13.224768428260493 0.0
    vertex -0.6928203230275479 13.224768428260493 1.9999999999999998
  endloop
endfacet
facet normal -0.7933533402912356 0.6087614290087202 0.0
  outer loop
    vertex -0.6928203230275479 13.224768428260493 0.0
    vertex -0.5656854249492237 13.390453853209724 1.9999999999999998
    vertex -0.5656854249492237 13.390453853209724 0.0
  endloop
endfacet
facet normal 0.13052619222004952 0.9914448613738108 0.0
  outer loop
    vertex 0.0 13.62476842826048 1.1999999999999997
    vertex 0.20705523608201595 13.597509089291751 0.0
    vertex 0.0 13.62476842826048 0.0
  endloop
endfacet
facet normal 0.13052619222004952 0.9914448613738108 0.0
  outer loop
    vertex 0.20705523608201595 13.597509089291751 0.0
    vertex 0.0 13.62476842826048 1.1999999999999997
    vertex 0.20705523608201595 13.597509089291751 1.1999999999999997
  endloop
endfacet
facet normal 0.7933533402912306 0.6087614290087267 0.0
  outer loop
    vertex 0.5656854249492349 13.390453853209754 0.0
    vertex 0.6928203230275536 13.224768428260493 1.1999999999999997
    vertex 0.6928203230275536 13.224768428260493 0.0
  endloop
endfacet
facet normal 0.7933533402912306 0.6087614290087267 0.0
  outer loop
    vertex 0.6928203230275536 13.224768428260493 1.1999999999999997
    vertex 0.5656854249492349 13.390453853209754 0.0
    vertex 0.5656854249492349 13.390453853209754 1.1999999999999997
  endloop
endfacet
facet normal -0.6087614290087182 0.7933533402912372 0.0
  outer loop
    vertex -0.5656854249492237 13.390453853209724 1.9999999999999998
    vertex -0.39999999999999925 13.517588751288065 0.0
    vertex -0.5656854249492237 13.390453853209724 0.0
  endloop
endfacet
facet normal -0.6087614290087182 0.7933533402912372 0.0
  outer loop
    vertex -0.39999999999999925 13.517588751288065 0.0
    vertex -0.5656854249492237 13.390453853209724 1.9999999999999998
    vertex -0.39999999999999925 13.517588751288065 1.9999999999999998
  endloop
endfacet
facet normal -0.13052619222004955 0.9914448613738107 -5.346677313645984e-19
  outer loop
    vertex -0.20705523608202725 13.597509089291767 1.9999999999999998
    vertex 0.0 13.62476842826048 0.0
    vertex -0.20705523608202725 13.597509089291767 0.0
  endloop
endfacet
facet normal -0.13052619222004955 0.9914448613738107 -5.346677313645984e-19
  outer loop
    vertex 0.0 13.62476842826048 0.0
    vertex -0.20705523608202725 13.597509089291767 1.9999999999999998
    vertex 0.0 13.62476842826048 1.1999999999999997
  endloop
endfacet
facet normal -0.13052619222004955 0.9914448613738107 -5.346677313645984e-19
  outer loop
    vertex 0.0 13.62476842826048 1.1999999999999997
    vertex -0.20705523608202725 13.597509089291767 1.9999999999999998
    vertex 0.0 13.62476842826048 1.9999999999999998
  endloop
endfacet
facet normal -0.991444861373809 0.130526192220063 5.346677313645976e-19
  outer loop
    vertex -0.7727406610312396 13.031823664342493 1.9999999999999998
    vertex -0.7999999999999873 12.824768428260484 0.0
    vertex -0.7999999999999873 12.824768428260484 1.9999999999999998
  endloop
endfacet
facet normal -0.991444861373809 0.130526192220063 5.346677313645976e-19
  outer loop
    vertex -0.7999999999999873 12.824768428260484 0.0
    vertex -0.7727406610312396 13.031823664342493 1.9999999999999998
    vertex -0.7727406610312396 13.031823664342493 0.0
  endloop
endfacet
facet normal 0.9914448613738089 0.1305261922200627 0.0
  outer loop
    vertex 0.7727406610312508 13.03182366434253 0.0
    vertex 0.8000000000000098 12.824768428260489 1.1999999999999997
    vertex 0.8000000000000098 12.824768428260489 0.0
  endloop
endfacet
facet normal 0.9914448613738089 0.1305261922200627 0.0
  outer loop
    vertex 0.8000000000000098 12.824768428260489 1.1999999999999997
    vertex 0.7727406610312508 13.03182366434253 0.0
    vertex 0.7727406610312508 13.03182366434253 1.1999999999999997
  endloop
endfacet
facet normal -0.7071067811865599 -0.7071067811865352 0.0
  outer loop
    vertex 0.0 0.4252192149304768 1.9999999999999998
    vertex 0.6000000000000045 -0.174780785069539 1.1999999999999997
    vertex 0.6000000000000045 -0.174780785069539 1.9999999999999998
  endloop
endfacet
facet normal -0.7071067811865599 -0.7071067811865352 0.0
  outer loop
    vertex 0.6000000000000045 -0.174780785069539 1.1999999999999997
    vertex 0.0 0.4252192149304768 1.9999999999999998
    vertex 0.0 0.4252192149304768 1.1999999999999997
  endloop
endfacet
facet normal 0.6087614290087265 0.7933533402912307 0.0
  outer loop
    vertex 0.40000000000001057 13.517588751288026 1.1999999999999997
    vertex 0.5656854249492349 13.390453853209754 0.0
    vertex 0.40000000000001057 13.517588751288026 0.0
  endloop
endfacet
facet normal 0.6087614290087265 0.7933533402912307 0.0
  outer loop
    vertex 0.5656854249492349 13.390453853209754 0.0
    vertex 0.40000000000001057 13.517588751288026 1.1999999999999997
    vertex 0.5656854249492349 13.390453853209754 1.1999999999999997
  endloop
endfacet
facet normal -0.38268343236508673 -0.9238795325112882 0.0
  outer loop
    vertex -0.20705523608200468 12.052027767229225 1.1999999999999997
    vertex -0.39999999999999364 12.131948105232933 0.0
    vertex -0.20705523608200468 12.052027767229225 0.0
  endloop
endfacet
facet normal -0.38268343236508673 -0.9238795325112882 0.0
  outer loop
    vertex -0.39999999999999364 12.131948105232933 0.0
    vertex -0.20705523608200468 12.052027767229225 1.1999999999999997
    vertex -0.39999999999999364 12.131948105232933 1.1999999999999997
  endloop
endfacet
facet normal -0.9914448613738089 -0.1305261922200627 0.0
  outer loop
    vertex -0.7999999999999873 12.824768428260484 1.9999999999999998
    vertex -0.7727406610312396 12.617713192178465 1.1999999999999997
    vertex -0.7727406610312396 12.617713192178465 1.9999999999999998
  endloop
endfacet
facet normal -0.9914448613738089 -0.1305261922200627 0.0
  outer loop
    vertex -0.7727406610312396 12.617713192178465 1.1999999999999997
    vertex -0.7999999999999873 12.824768428260484 1.9999999999999998
    vertex -0.7727406610312396 12.617713192178465 0.0
  endloop
endfacet
facet normal -0.9914448613738089 -0.1305261922200627 0.0
  outer loop
    vertex -0.7727406610312396 12.617713192178465 0.0
    vertex -0.7999999999999873 12.824768428260484 1.9999999999999998
    vertex -0.7999999999999873 12.824768428260484 0.0
  endloop
endfacet
facet normal -0.7933533402912356 -0.6087614290087202 0.0
  outer loop
    vertex -0.6928203230275479 12.424768428260505 1.1999999999999997
    vertex -0.5656854249492406 12.259083003311263 0.0
    vertex -0.5656854249492406 12.259083003311263 1.1999999999999997
  endloop
endfacet
facet normal -0.7933533402912356 -0.6087614290087202 0.0
  outer loop
    vertex -0.5656854249492406 12.259083003311263 0.0
    vertex -0.6928203230275479 12.424768428260505 1.1999999999999997
    vertex -0.6928203230275479 12.424768428260505 0.0
  endloop
endfacet
facet normal -3.6815791493951688e-31 1.0 3.4514804525579644e-31
  outer loop
    vertex 0.0 13.62476842826048 1.1999999999999997
    vertex 11.999999999999998 13.62476842826048 1.9999999999999998
    vertex 11.999999999999998 13.62476842826048 1.1999999999999995
  endloop
endfacet
facet normal -3.6815791493951688e-31 1.0 3.4514804525579644e-31
  outer loop
    vertex 11.999999999999998 13.62476842826048 1.9999999999999998
    vertex 0.0 13.62476842826048 1.1999999999999997
    vertex 0.0 13.62476842826048 1.9999999999999998
  endloop
endfacet
facet normal 0.7933533402912357 -0.60876142900872 0.0
  outer loop
    vertex 0.6928203230275536 12.424768428260496 0.0
    vertex 0.5656854249492462 12.259083003311241 1.1999999999999997
    vertex 0.5656854249492462 12.259083003311241 0.0
  endloop
endfacet
facet normal 0.7933533402912357 -0.60876142900872 0.0
  outer loop
    vertex 0.5656854249492462 12.259083003311241 1.1999999999999997
    vertex 0.6928203230275536 12.424768428260496 0.0
    vertex 0.6928203230275536 12.424768428260496 1.1999999999999997
  endloop
endfacet
facet normal 0.0 0.0 -1.0
  outer loop
    vertex -0.7727406610312396 13.031823664342493 0.0
    vertex -0.7727406610312396 12.617713192178465 0.0
    vertex -0.7999999999999873 12.824768428260484 0.0
  endloop
endfacet
facet normal 0.0 0.0 -1.0
  outer loop
    vertex -0.7727406610312396 12.617713192178465 0.0
    vertex -0.7727406610312396 13.031823664342493 0.0
    vertex -0.6928203230275479 13.224768428260493 0.0
  endloop
endfacet
facet normal 0.0 0.0 -1.0
  outer loop
    vertex -0.7727406610312396 12.617713192178465 0.0
    vertex -0.6928203230275479 13.224768428260493 0.0
    vertex -0.6928203230275479 12.424768428260505 0.0
  endloop
endfacet
facet normal 0.0 0.0 -1.0
  outer loop
    vertex -0.6928203230275479 12.424768428260505 0.0
    vertex -0.6928203230275479 13.224768428260493 0.0
    vertex -0.5656854249492237 13.390453853209724 0.0
  endloop
endfacet
facet normal 0.0 0.0 -1.0
  outer loop
    vertex -0.6928203230275479 12.424768428260505 0.0
    vertex -0.5656854249492237 13.390453853209724 0.0
    vertex -0.5656854249492406 12.259083003311263 0.0
  endloop
endfacet
facet normal 0.0 0.0 -1.0
  outer loop
    vertex -0.5656854249492406 12.259083003311263 0.0
    vertex -0.5656854249492237 13.390453853209724 0.0
    vertex -0.39999999999999364 12.131948105232933 0.0
  endloop
endfacet
facet normal 0.0 0.0 -1.0
  outer loop
    vertex -0.39999999999999364 12.131948105232933 0.0
    vertex -0.5656854249492237 13.390453853209724 0.0
    vertex -0.39999999999999925 13.517588751288065 0.0
  endloop
endfacet
facet normal 0.0 0.0 -1.0
  outer loop
    vertex -0.39999999999999364 12.131948105232933 0.0
    vertex -0.39999999999999925 13.517588751288065 0.0
    vertex -0.20705523608202725 13.597509089291767 0.0
  endloop
endfacet
facet normal 0.0 0.0 -1.0
  outer loop
    vertex -0.39999999999999364 12.131948105232933 0.0
    vertex -0.20705523608202725 13.597509089291767 0.0
    vertex -0.20705523608200468 12.052027767229225 0.0
  endloop
endfacet
facet normal 0.0 0.0 -1.0
  outer loop
    vertex -0.20705523608200468 12.052027767229225 0.0
    vertex -0.20705523608202725 13.597509089291767 0.0
    vertex 0.0 13.62476842826048 0.0
  endloop
endfacet
facet normal 0.0 0.0 -1.0
  outer loop
    vertex -0.20705523608200468 12.052027767229225 0.0
    vertex 0.0 13.62476842826048 0.0
    vertex 1.127986593019159e-14 12.024768428260478 0.0
  endloop
endfacet
facet normal 0.0 0.0 -1.0
  outer loop
    vertex 1.127986593019159e-14 12.024768428260478 0.0
    vertex 0.0 13.62476842826048 0.0
    vertex 0.20705523608201595 13.597509089291751 0.0
  endloop
endfacet
facet normal 0.0 0.0 -1.0
  outer loop
    vertex 1.127986593019159e-14 12.024768428260478 0.0
    vertex 0.20705523608201595 13.597509089291751 0.0
    vertex 0.20705523608202725 12.052027767229225 0.0
  endloop
endfacet
facet normal 0.0 0.0 -1.0
  outer loop
    vertex 0.20705523608202725 12.052027767229225 0.0
    vertex 0.20705523608201595 13.597509089291751 0.0
    vertex 0.40000000000001057 13.517588751288026 0.0
  endloop
endfacet
facet normal 0.0 0.0 -1.0
  outer loop
    vertex 0.20705523608202725 12.052027767229225 0.0
    vertex 0.40000000000001057 13.517588751288026 0.0
    vertex 0.39999999999999364 12.131948105232945 0.0
  endloop
endfacet
facet normal 0.0 0.0 -1.0
  outer loop
    vertex 0.39999999999999364 12.131948105232945 0.0
    vertex 0.40000000000001057 13.517588751288026 0.0
    vertex 0.5656854249492462 12.259083003311241 0.0
  endloop
endfacet
facet normal 0.0 0.0 -1.0
  outer loop
    vertex 0.5656854249492462 12.259083003311241 0.0
    vertex 0.40000000000001057 13.517588751288026 0.0
    vertex 0.5656854249492349 13.390453853209754 0.0
  endloop
endfacet
facet normal 0.0 0.0 -1.0
  outer loop
    vertex 0.5656854249492462 12.259083003311241 0.0
    vertex 0.5656854249492349 13.390453853209754 0.0
    vertex 0.6928203230275536 13.224768428260493 0.0
  endloop
endfacet
facet normal 0.0 0.0 -1.0
  outer loop
    vertex 0.5656854249492462 12.259083003311241 0.0
    vertex 0.6928203230275536 13.224768428260493 0.0
    vertex 0.6928203230275536 12.424768428260496 0.0
  endloop
endfacet
facet normal 0.0 0.0 -1.0
  outer loop
    vertex 0.6928203230275536 12.424768428260496 0.0
    vertex 0.6928203230275536 13.224768428260493 0.0
    vertex 0.7727406610312508 13.03182366434253 0.0
  endloop
endfacet
facet normal 0.0 0.0 -1.0
  outer loop
    vertex 0.6928203230275536 12.424768428260496 0.0
    vertex 0.7727406610312508 13.03182366434253 0.0
    vertex 0.7727406610312622 12.61771319217846 0.0
  endloop
endfacet
facet normal 0.0 0.0 -1.0
  outer loop
    vertex 0.7727406610312622 12.61771319217846 0.0
    vertex 0.7727406610312508 13.03182366434253 0.0
    vertex 0.8000000000000098 12.824768428260489 0.0
  endloop
endfacet
facet normal -0.6087614290087265 -0.7933533402912307 0.0
  outer loop
    vertex -0.39999999999999364 12.131948105232933 1.1999999999999997
    vertex -0.5656854249492406 12.259083003311263 0.0
    vertex -0.39999999999999364 12.131948105232933 0.0
  endloop
endfacet
facet normal -0.6087614290087265 -0.7933533402912307 0.0
  outer loop
    vertex -0.5656854249492406 12.259083003311263 0.0
    vertex -0.39999999999999364 12.131948105232933 1.1999999999999997
    vertex -0.5656854249492406 12.259083003311263 1.1999999999999997
  endloop
endfacet
facet normal -0.13052619222004957 -0.9914448613738107 0.0
  outer loop
    vertex 1.127986593019159e-14 12.024768428260478 1.1999999999999997
    vertex -0.20705523608200468 12.052027767229225 0.0
    vertex 1.127986593019159e-14 12.024768428260478 0.0
  endloop
endfacet
facet normal -0.13052619222004957 -0.9914448613738107 0.0
  outer loop
    vertex -0.20705523608200468 12.052027767229225 0.0
    vertex 1.127986593019159e-14 12.024768428260478 1.1999999999999997
    vertex -0.20705523608200468 12.052027767229225 1.1999999999999997
  endloop
endfacet
facet normal -1.506678609509972e-17 8.354044489011936e-33 -1.0
  outer loop
    vertex 11.999999999999998 13.62476842826048 1.1999999999999995
    vertex 0.20705523608201595 13.597509089291751 1.1999999999999997
    vertex 0.0 13.62476842826048 1.1999999999999997
  endloop
endfacet
facet normal -1.506678609509972e-17 8.354044489011936e-33 -1.0
  outer loop
    vertex 0.20705523608201595 13.597509089291751 1.1999999999999997
    vertex 11.999999999999998 13.62476842826048 1.1999999999999995
    vertex 0.40000000000001057 13.517588751288026 1.1999999999999997
  endloop
endfacet
facet normal -1.506678609509972e-17 8.354044489011936e-33 -1.0
  outer loop
    vertex 0.40000000000001057 13.517588751288026 1.1999999999999997
    vertex 11.999999999999998 13.62476842826048 1.1999999999999995
    vertex 0.5656854249492349 13.390453853209754 1.1999999999999997
  endloop
endfacet
facet normal -1.506678609509972e-17 8.354044489011936e-33 -1.0
  outer loop
    vertex 0.5656854249492349 13.390453853209754 1.1999999999999997
    vertex 11.999999999999998 13.62476842826048 1.1999999999999995
    vertex 0.6928203230275536 13.224768428260493 1.1999999999999997
  endloop
endfacet
facet normal -1.506678609509972e-17 8.354044489011936e-33 -1.0
  outer loop
    vertex 0.6928203230275536 13.224768428260493 1.1999999999999997
    vertex 11.999999999999998 13.62476842826048 1.1999999999999995
    vertex 0.7727406610312508 13.03182366434253 1.1999999999999997
  endloop
endfacet
facet normal -1.506678609509972e-17 8.354044489011936e-33 -1.0
  outer loop
    vertex 0.7727406610312508 13.03182366434253 1.1999999999999997
    vertex 11.999999999999998 13.62476842826048 1.1999999999999995
    vertex 0.8000000000000098 12.824768428260489 1.1999999999999997
  endloop
endfacet
facet normal -1.506678609509972e-17 8.354044489011936e-33 -1.0
  outer loop
    vertex 0.8000000000000098 12.824768428260489 1.1999999999999997
    vertex 11.999999999999998 13.62476842826048 1.1999999999999995
    vertex 11.792944763917982 13.597509089291751 1.1999999999999995
  endloop
endfacet
facet normal -1.506678609509972e-17 8.354044489011936e-33 -1.0
  outer loop
    vertex 0.8000000000000098 12.824768428260489 1.1999999999999997
    vertex 11.792944763917982 13.597509089291751 1.1999999999999995
    vertex 11.59999999999999 13.517588751288026 1.1999999999999995
  endloop
endfacet
facet normal -1.506678609509972e-17 8.354044489011936e-33 -1.0
  outer loop
    vertex 0.8000000000000098 12.824768428260489 1.1999999999999997
    vertex 11.59999999999999 13.517588751288026 1.1999999999999995
    vertex 11.434314575050765 13.390453853209754 1.1999999999999995
  endloop
endfacet
facet normal -1.506678609509972e-17 8.354044489011936e-33 -1.0
  outer loop
    vertex 0.8000000000000098 12.824768428260489 1.1999999999999997
    vertex 11.434314575050765 13.390453853209754 1.1999999999999995
    vertex 11.307179676972444 13.224768428260493 1.1999999999999995
  endloop
endfacet
facet normal -1.506678609509972e-17 8.354044489011936e-33 -1.0
  outer loop
    vertex 0.8000000000000098 12.824768428260489 1.1999999999999997
    vertex 11.307179676972444 13.224768428260493 1.1999999999999995
    vertex 11.227259338968747 13.03182366434253 1.1999999999999995
  endloop
endfacet
facet normal -1.506678609509972e-17 8.354044489011936e-33 -1.0
  outer loop
    vertex 0.8000000000000098 12.824768428260489 1.1999999999999997
    vertex 11.227259338968747 13.03182366434253 1.1999999999999995
    vertex 11.199999999999994 12.824768428260489 1.1999999999999995
  endloop
endfacet
facet normal -1.506678609509972e-17 8.354044489011936e-33 -1.0
  outer loop
    vertex 12.207055236082008 12.052027767229225 1.1999999999999995
    vertex 11.999999999999998 9.825219214930499 1.1999999999999995
    vertex 11.99999999999999 12.024768428260478 1.1999999999999995
  endloop
endfacet
facet normal -1.506678609509972e-17 8.354044489011936e-33 -1.0
  outer loop
    vertex 11.999999999999998 9.825219214930499 1.1999999999999995
    vertex 12.207055236082008 12.052027767229225 1.1999999999999995
    vertex 12.399999999999995 12.131948105232933 1.1999999999999995
  endloop
endfacet
facet normal -1.506678609509972e-17 8.354044489011936e-33 -1.0
  outer loop
    vertex 11.999999999999998 9.825219214930499 1.1999999999999995
    vertex 12.399999999999995 12.131948105232933 1.1999999999999995
    vertex 12.56568542494924 12.259083003311263 1.1999999999999995
  endloop
endfacet
facet normal -1.506678609509972e-17 8.354044489011936e-33 -1.0
  outer loop
    vertex 11.999999999999998 9.825219214930499 1.1999999999999995
    vertex 12.56568542494924 12.259083003311263 1.1999999999999995
    vertex 12.692820323027549 12.424768428260505 1.1999999999999995
  endloop
endfacet
facet normal -1.506678609509972e-17 8.354044489011936e-33 -1.0
  outer loop
    vertex 11.999999999999998 9.825219214930499 1.1999999999999995
    vertex 12.692820323027549 12.424768428260505 1.1999999999999995
    vertex 12.77274066103124 12.617713192178465 1.1999999999999995
  endloop
endfacet
facet normal -1.506678609509972e-17 8.354044489011936e-33 -1.0
  outer loop
    vertex -0.6928203230275479 12.424768428260505 1.1999999999999997
    vertex 0.0 9.825219214930499 1.1999999999999997
    vertex -0.7727406610312396 12.617713192178465 1.1999999999999997
  endloop
endfacet
facet normal -1.506678609509972e-17 8.354044489011936e-33 -1.0
  outer loop
    vertex 0.0 9.825219214930499 1.1999999999999997
    vertex -0.6928203230275479 12.424768428260505 1.1999999999999997
    vertex -0.5656854249492406 12.259083003311263 1.1999999999999997
  endloop
endfacet
facet normal -1.506678609509972e-17 8.354044489011936e-33 -1.0
  outer loop
    vertex 0.0 9.825219214930499 1.1999999999999997
    vertex -0.5656854249492406 12.259083003311263 1.1999999999999997
    vertex -0.39999999999999364 12.131948105232933 1.1999999999999997
  endloop
endfacet
facet normal -1.506678609509972e-17 8.354044489011936e-33 -1.0
  outer loop
    vertex 0.0 9.825219214930499 1.1999999999999997
    vertex -0.39999999999999364 12.131948105232933 1.1999999999999997
    vertex -0.20705523608200468 12.052027767229225 1.1999999999999997
  endloop
endfacet
facet normal -1.506678609509972e-17 8.354044489011936e-33 -1.0
  outer loop
    vertex 0.0 9.825219214930499 1.1999999999999997
    vertex -0.20705523608200468 12.052027767229225 1.1999999999999997
    vertex 1.127986593019159e-14 12.024768428260478 1.1999999999999997
  endloop
endfacet
facet normal -1.506678609509972e-17 8.354044489011936e-33 -1.0
  outer loop
    vertex 0.0 9.825219214930499 1.1999999999999997
    vertex 1.127986593019159e-14 12.024768428260478 1.1999999999999997
    vertex 0.0 0.4252192149304768 1.1999999999999997
  endloop
endfacet
facet normal -1.506678609509972e-17 8.354044489011936e-33 -1.0
  outer loop
    vertex 0.0 0.4252192149304768 1.1999999999999997
    vertex 1.127986593019159e-14 12.024768428260478 1.1999999999999997
    vertex 0.6000000000000045 -0.174780785069539 1.1999999999999997
  endloop
endfacet
facet normal -1.506678609509972e-17 8.354044489011936e-33 -1.0
  outer loop
    vertex 0.6000000000000045 -0.174780785069539 1.1999999999999997
    vertex 1.127986593019159e-14 12.024768428260478 1.1999999999999997
    vertex 0.20705523608202725 12.052027767229225 1.1999999999999997
  endloop
endfacet
facet normal -1.506678609509972e-17 8.354044489011936e-33 -1.0
  outer loop
    vertex 0.6000000000000045 -0.174780785069539 1.1999999999999997
    vertex 0.20705523608202725 12.052027767229225 1.1999999999999997
    vertex 0.39999999999999364 12.131948105232945 1.1999999999999997
  endloop
endfacet
facet normal -1.506678609509972e-17 8.354044489011936e-33 -1.0
  outer loop
    vertex 0.6000000000000045 -0.174780785069539 1.1999999999999997
    vertex 0.39999999999999364 12.131948105232945 1.1999999999999997
    vertex 0.5656854249492462 12.259083003311241 1.1999999999999997
  endloop
endfacet
facet normal -1.506678609509972e-17 8.354044489011936e-33 -1.0
  outer loop
    vertex 0.6000000000000045 -0.174780785069539 1.1999999999999997
    vertex 0.5656854249492462 12.259083003311241 1.1999999999999997
    vertex 0.6928203230275536 12.424768428260496 1.1999999999999997
  endloop
endfacet
facet normal -1.506678609509972e-17 8.354044489011936e-33 -1.0
  outer loop
    vertex 0.6000000000000045 -0.174780785069539 1.1999999999999997
    vertex 0.6928203230275536 12.424768428260496 1.1999999999999997
    vertex 11.399999999999997 -0.174780785069539 1.1999999999999995
  endloop
endfacet
facet normal -1.506678609509972e-17 8.354044489011936e-33 -1.0
  outer loop
    vertex 11.399999999999997 -0.174780785069539 1.1999999999999995
    vertex 0.6928203230275536 12.424768428260496 1.1999999999999997
    vertex 0.7727406610312622 12.61771319217846 1.1999999999999997
  endloop
endfacet
facet normal -1.506678609509972e-17 8.354044489011936e-33 -1.0
  outer loop
    vertex 11.399999999999997 -0.174780785069539 1.1999999999999995
    vertex 0.7727406610312622 12.61771319217846 1.1999999999999997
    vertex 0.8000000000000098 12.824768428260489 1.1999999999999997
  endloop
endfacet
facet normal -1.506678609509972e-17 8.354044489011936e-33 -1.0
  outer loop
    vertex 11.399999999999997 -0.174780785069539 1.1999999999999995
    vertex 0.8000000000000098 12.824768428260489 1.1999999999999997
    vertex 11.199999999999994 12.824768428260489 1.1999999999999995
  endloop
endfacet
facet normal -1.506678609509972e-17 8.354044489011936e-33 -1.0
  outer loop
    vertex 11.399999999999997 -0.174780785069539 1.1999999999999995
    vertex 11.199999999999994 12.824768428260489 1.1999999999999995
    vertex 11.227259338968738 12.61771319217846 1.1999999999999995
  endloop
endfacet
facet normal -1.506678609509972e-17 8.354044489011936e-33 -1.0
  outer loop
    vertex 11.399999999999997 -0.174780785069539 1.1999999999999995
    vertex 11.227259338968738 12.61771319217846 1.1999999999999995
    vertex 11.30717967697245 12.424768428260496 1.1999999999999995
  endloop
endfacet
facet normal -1.506678609509972e-17 8.354044489011936e-33 -1.0
  outer loop
    vertex 11.399999999999997 -0.174780785069539 1.1999999999999995
    vertex 11.30717967697245 12.424768428260496 1.1999999999999995
    vertex 11.434314575050754 12.259083003311241 1.1999999999999995
  endloop
endfacet
facet normal -1.506678609509972e-17 8.354044489011936e-33 -1.0
  outer loop
    vertex 11.399999999999997 -0.174780785069539 1.1999999999999995
    vertex 11.434314575050754 12.259083003311241 1.1999999999999995
    vertex 11.999999999999998 0.4252192149304768 1.1999999999999995
  endloop
endfacet
facet normal -1.506678609509972e-17 8.354044489011936e-33 -1.0
  outer loop
    vertex 11.999999999999998 0.4252192149304768 1.1999999999999995
    vertex 11.434314575050754 12.259083003311241 1.1999999999999995
    vertex 11.600000000000007 12.131948105232945 1.1999999999999995
  endloop
endfacet
facet normal -1.506678609509972e-17 8.354044489011936e-33 -1.0
  outer loop
    vertex 11.999999999999998 0.4252192149304768 1.1999999999999995
    vertex 11.600000000000007 12.131948105232945 1.1999999999999995
    vertex 11.792944763917971 12.052027767229225 1.1999999999999995
  endloop
endfacet
facet normal -1.506678609509972e-17 8.354044489011936e-33 -1.0
  outer loop
    vertex 11.999999999999998 0.4252192149304768 1.1999999999999995
    vertex 11.792944763917971 12.052027767229225 1.1999999999999995
    vertex 11.99999999999999 12.024768428260478 1.1999999999999995
  endloop
endfacet
facet normal -1.506678609509972e-17 8.354044489011936e-33 -1.0
  outer loop
    vertex 11.999999999999998 0.4252192149304768 1.1999999999999995
    vertex 11.99999999999999 12.024768428260478 1.1999999999999995
    vertex 11.999999999999998 9.825219214930499 1.1999999999999995
  endloop
endfacet
facet normal 0.0 0.0 1.0
  outer loop
    vertex 0.6000000000000045 -0.174780785069539 1.9999999999999998
    vertex 0.0 9.825219214930499 1.9999999999999998
    vertex 0.0 0.4252192149304768 1.9999999999999998
  endloop
endfacet
facet normal 0.0 0.0 1.0
  outer loop
    vertex 0.0 9.825219214930499 1.9999999999999998
    vertex 0.6000000000000045 -0.174780785069539 1.9999999999999998
    vertex 0.0 13.62476842826048 1.9999999999999998
  endloop
endfacet
facet normal 0.0 0.0 1.0
  outer loop
    vertex 0.0 13.62476842826048 1.9999999999999998
    vertex 0.6000000000000045 -0.174780785069539 1.9999999999999998
    vertex 11.999999999999998 13.62476842826048 1.9999999999999998
  endloop
endfacet
facet normal 0.0 0.0 1.0
  outer loop
    vertex 11.999999999999998 13.62476842826048 1.9999999999999998
    vertex 0.6000000000000045 -0.174780785069539 1.9999999999999998
    vertex 11.399999999999997 -0.174780785069539 1.9999999999999998
  endloop
endfacet
facet normal 0.0 0.0 1.0
  outer loop
    vertex 11.999999999999998 13.62476842826048 1.9999999999999998
    vertex 11.399999999999997 -0.174780785069539 1.9999999999999998
    vertex 11.999999999999998 0.4252192149304768 1.9999999999999998
  endloop
endfacet
facet normal 0.0 0.0 1.0
  outer loop
    vertex 11.999999999999998 13.62476842826048 1.9999999999999998
    vertex 11.999999999999998 0.4252192149304768 1.9999999999999998
    vertex 11.999999999999998 9.825219214930499 1.9999999999999998
  endloop
endfacet
facet normal 0.0 0.0 1.0
  outer loop
    vertex 11.999999999999998 13.62476842826048 1.9999999999999998
    vertex 11.999999999999998 9.825219214930499 1.9999999999999998
    vertex 12.77274066103124 12.617713192178465 1.9999999999999998
  endloop
endfacet
facet normal 0.0 0.0 1.0
  outer loop
    vertex 11.999999999999998 13.62476842826048 1.9999999999999998
    vertex 12.77274066103124 12.617713192178465 1.9999999999999998
    vertex 12.20705523608203 13.597509089291767 1.9999999999999998
  endloop
endfacet
facet normal 0.0 0.0 1.0
  outer loop
    vertex 12.20705523608203 13.597509089291767 1.9999999999999998
    vertex 12.77274066103124 12.617713192178465 1.9999999999999998
    vertex 12.4 13.517588751288065 1.9999999999999998
  endloop
endfacet
facet normal 0.0 0.0 1.0
  outer loop
    vertex 12.4 13.517588751288065 1.9999999999999998
    vertex 12.77274066103124 12.617713192178465 1.9999999999999998
    vertex 12.565685424949224 13.390453853209724 1.9999999999999998
  endloop
endfacet
facet normal 0.0 0.0 1.0
  outer loop
    vertex 12.565685424949224 13.390453853209724 1.9999999999999998
    vertex 12.77274066103124 12.617713192178465 1.9999999999999998
    vertex 12.692820323027549 13.224768428260493 1.9999999999999998
  endloop
endfacet
facet normal 0.0 0.0 1.0
  outer loop
    vertex 12.692820323027549 13.224768428260493 1.9999999999999998
    vertex 12.77274066103124 12.617713192178465 1.9999999999999998
    vertex 12.77274066103124 13.031823664342493 1.9999999999999998
  endloop
endfacet
facet normal 0.0 0.0 1.0
  outer loop
    vertex 12.77274066103124 13.031823664342493 1.9999999999999998
    vertex 12.77274066103124 12.617713192178465 1.9999999999999998
    vertex 12.799999999999988 12.824768428260484 1.9999999999999998
  endloop
endfacet
facet normal 0.0 0.0 1.0
  outer loop
    vertex -0.7727406610312396 12.617713192178465 1.9999999999999998
    vertex -0.7727406610312396 13.031823664342493 1.9999999999999998
    vertex -0.7999999999999873 12.824768428260484 1.9999999999999998
  endloop
endfacet
facet normal 0.0 0.0 1.0
  outer loop
    vertex -0.7727406610312396 13.031823664342493 1.9999999999999998
    vertex -0.7727406610312396 12.617713192178465 1.9999999999999998
    vertex 0.0 9.825219214930499 1.9999999999999998
  endloop
endfacet
facet normal 0.0 0.0 1.0
  outer loop
    vertex -0.7727406610312396 13.031823664342493 1.9999999999999998
    vertex 0.0 9.825219214930499 1.9999999999999998
    vertex -0.6928203230275479 13.224768428260493 1.9999999999999998
  endloop
endfacet
facet normal 0.0 0.0 1.0
  outer loop
    vertex -0.6928203230275479 13.224768428260493 1.9999999999999998
    vertex 0.0 9.825219214930499 1.9999999999999998
    vertex -0.5656854249492237 13.390453853209724 1.9999999999999998
  endloop
endfacet
facet normal 0.0 0.0 1.0
  outer loop
    vertex -0.5656854249492237 13.390453853209724 1.9999999999999998
    vertex 0.0 9.825219214930499 1.9999999999999998
    vertex -0.39999999999999925 13.517588751288065 1.9999999999999998
  endloop
endfacet
facet normal 0.0 0.0 1.0
  outer loop
    vertex -0.39999999999999925 13.517588751288065 1.9999999999999998
    vertex 0.0 9.825219214930499 1.9999999999999998
    vertex -0.20705523608202725 13.597509089291767 1.9999999999999998
  endloop
endfacet
facet normal 0.0 0.0 1.0
  outer loop
    vertex -0.20705523608202725 13.597509089291767 1.9999999999999998
    vertex 0.0 9.825219214930499 1.9999999999999998
    vertex 0.0 13.62476842826048 1.9999999999999998
  endloop
endfacet
endsolid a
