solid b
facet normal 0.0 0.0 -1.0
  outer loop
    vertex -5.000000000000001 5.5 0.0
    vertex -4.900000000000001 -7.049916206369744e-16 0.0
    vertex -5.000000000000001 -5.500000000000001 0.0
  endloop
endfacet
facet normal 0.0 0.0 -1.0
  outer loop
    vertex -4.900000000000001 -7.049916206369744e-16 0.0
    vertex -5.000000000000001 5.5 0.0
    vertex -4.500000000000001 6.0 0.0
  endloop
endfacet
facet normal 0.0 0.0 -1.0
  outer loop
    vertex -4.900000000000001 -7.049916206369744e-16 0.0
    vertex -4.500000000000001 6.0 0.0
    vertex -4.862518408917976 0.28470094961277176 0.0
  endloop
endfacet
facet normal 0.0 0.0 -1.0
  outer loop
    vertex -4.862518408917976 0.28470094961277176 0.0
    vertex -4.500000000000001 6.0 0.0
    vertex -4.752627944162883 0.5499999999999988 0.0
  endloop
endfacet
facet normal 0.0 0.0 -1.0
  outer loop
    vertex -4.752627944162883 0.5499999999999988 0.0
    vertex -4.500000000000001 6.0 0.0
    vertex -4.577817459305204 0.777817459305201 0.0
  endloop
endfacet
facet normal 0.0 0.0 -1.0
  outer loop
    vertex -4.577817459305204 0.777817459305201 0.0
    vertex -4.500000000000001 6.0 0.0
    vertex -4.350000000000001 0.9526279441628814 0.0
  endloop
endfacet
facet normal 0.0 0.0 -1.0
  outer loop
    vertex -4.350000000000001 0.9526279441628814 0.0
    vertex -4.500000000000001 6.0 0.0
    vertex 5.0 6.0 0.0
  endloop
endfacet
facet normal 0.0 0.0 -1.0
  outer loop
    vertex -4.350000000000001 0.9526279441628814 0.0
    vertex 5.0 6.0 0.0
    vertex -4.084700949612774 1.062518408917974 0.0
  endloop
endfacet
facet normal 0.0 0.0 -1.0
  outer loop
    vertex -4.084700949612774 1.062518408917974 0.0
    vertex 5.0 6.0 0.0
    vertex -3.8000000000000016 1.0999999999999992 0.0
  endloop
endfacet
facet normal 0.0 0.0 -1.0
  outer loop
    vertex -3.8000000000000016 1.0999999999999992 0.0
    vertex 5.0 6.0 0.0
    vertex -3.5152990503872283 1.0625184089179744 0.0
  endloop
endfacet
facet normal 0.0 0.0 -1.0
  outer loop
    vertex -3.5152990503872283 1.0625184089179744 0.0
    vertex 5.0 6.0 0.0
    vertex -3.250000000000001 0.9526279441628818 0.0
  endloop
endfacet
facet normal 0.0 0.0 -1.0
  outer loop
    vertex -3.250000000000001 0.9526279441628818 0.0
    vertex 5.0 6.0 0.0
    vertex -3.0221825406947986 0.7778174593052014 0.0
  endloop
endfacet
facet normal 0.0 0.0 -1.0
  outer loop
    vertex -3.0221825406947986 0.7778174593052014 0.0
    vertex 5.0 6.0 0.0
    vertex -2.847372055837118 0.5499999999999988 0.0
  endloop
endfacet
facet normal 0.0 0.0 -1.0
  outer loop
    vertex -2.847372055837118 0.5499999999999988 0.0
    vertex 5.0 6.0 0.0
    vertex -2.7374815910820254 0.2847009496127716 0.0
  endloop
endfacet
facet normal 0.0 0.0 -1.0
  outer loop
    vertex -2.7374815910820254 0.2847009496127716 0.0
    vertex 5.0 6.0 0.0
    vertex -2.7000000000000006 -1.233735336114705e-15 0.0
  endloop
endfacet
facet normal 0.0 0.0 -1.0
  outer loop
    vertex -2.7000000000000006 -1.233735336114705e-15 0.0
    vertex 5.0 6.0 0.0
    vertex 2.7374815910820254 0.28470094961277265 0.0
  endloop
endfacet
facet normal 0.0 0.0 -1.0
  outer loop
    vertex -2.7000000000000006 -1.233735336114705e-15 0.0
    vertex 2.7374815910820254 0.28470094961277265 0.0
    vertex 2.700000000000001 -3.524958103184872e-16 0.0
  endloop
endfacet
facet normal 0.0 0.0 -1.0
  outer loop
    vertex 2.7374815910820254 0.28470094961277265 0.0
    vertex 5.0 6.0 0.0
    vertex 2.8473720558371185 0.55 0.0
  endloop
endfacet
facet normal 0.0 0.0 -1.0
  outer loop
    vertex 2.8473720558371185 0.55 0.0
    vertex 5.0 6.0 0.0
    vertex 3.0221825406947986 0.7778174593052023 0.0
  endloop
endfacet
facet normal 0.0 0.0 -1.0
  outer loop
    vertex 3.0221825406947986 0.7778174593052023 0.0
    vertex 5.0 6.0 0.0
    vertex 3.250000000000001 0.9526279441628823 0.0
  endloop
endfacet
facet normal 0.0 0.0 -1.0
  outer loop
    vertex 3.250000000000001 0.9526279441628823 0.0
    vertex 5.0 6.0 0.0
    vertex 3.5152990503872283 1.0625184089179749 0.0
  endloop
endfacet
facet normal 0.0 0.0 -1.0
  outer loop
    vertex 3.5152990503872283 1.0625184089179749 0.0
    vertex 5.0 6.0 0.0
    vertex 3.8000000000000003 1.0999999999999996 0.0
  endloop
endfacet
facet normal 0.0 0.0 -1.0
  outer loop
    vertex 3.8000000000000003 1.0999999999999996 0.0
    vertex 5.0 6.0 0.0
    vertex 4.084700949612773 1.0625184089179749 0.0
  endloop
endfacet
facet normal 0.0 0.0 -1.0
  outer loop
    vertex 4.084700949612773 1.0625184089179749 0.0
    vertex 5.0 6.0 0.0
    vertex 4.3500000000000005 0.9526279441628823 0.0
  endloop
endfacet
facet normal 0.0 0.0 -1.0
  outer loop
    vertex 4.3500000000000005 0.9526279441628823 0.0
    vertex 5.0 6.0 0.0
    vertex 4.577817459305204 0.7778174593052005 0.0
  endloop
endfacet
facet normal 0.0 0.0 -1.0
  outer loop
    vertex 4.577817459305204 0.7778174593052005 0.0
    vertex 5.0 6.0 0.0
    vertex 4.752627944162885 0.5499999999999979 0.0
  endloop
endfacet
facet normal 0.0 0.0 -1.0
  outer loop
    vertex 4.752627944162885 0.5499999999999979 0.0
    vertex 5.0 6.0 0.0
    vertex 4.8625184089179765 0.28470094961277104 0.0
  endloop
endfacet
facet normal 0.0 0.0 -1.0
  outer loop
    vertex 4.8625184089179765 0.28470094961277104 0.0
    vertex 5.0 6.0 0.0
    vertex 4.900000000000001 -1.5862311464331924e-15 0.0
  endloop
endfacet
facet normal 0.0 0.0 -1.0
  outer loop
    vertex -4.900000000000001 -7.049916206369744e-16 0.0
    vertex -4.500000000000001 -6.000000000000001 0.0
    vertex -5.000000000000001 -5.500000000000001 0.0
  endloop
endfacet
facet normal 0.0 0.0 -1.0
  outer loop
    vertex -4.500000000000001 -6.000000000000001 0.0
    vertex -4.900000000000001 -7.049916206369744e-16 0.0
    vertex -4.8625184089179765 -0.2847009496127732 0.0
  endloop
endfacet
facet normal 0.0 0.0 -1.0
  outer loop
    vertex -4.500000000000001 -6.000000000000001 0.0
    vertex -4.8625184089179765 -0.2847009496127732 0.0
    vertex -4.752627944162883 -0.5500000000000003 0.0
  endloop
endfacet
facet normal 0.0 0.0 -1.0
  outer loop
    vertex -4.500000000000001 -6.000000000000001 0.0
    vertex -4.752627944162883 -0.5500000000000003 0.0
    vertex -4.577817459305204 -0.7778174593052024 0.0
  endloop
endfacet
facet normal 0.0 0.0 -1.0
  outer loop
    vertex -4.500000000000001 -6.000000000000001 0.0
    vertex -4.577817459305204 -0.7778174593052024 0.0
    vertex -4.350000000000002 -0.9526279441628827 0.0
  endloop
endfacet
facet normal 0.0 0.0 -1.0
  outer loop
    vertex -4.500000000000001 -6.000000000000001 0.0
    vertex -4.350000000000002 -0.9526279441628827 0.0
    vertex 5.000000000000001 -6.000000000000001 0.0
  endloop
endfacet
facet normal 0.0 0.0 -1.0
  outer loop
    vertex 5.000000000000001 -6.000000000000001 0.0
    vertex -4.350000000000002 -0.9526279441628827 0.0
    vertex -4.084700949612776 -1.0625184089179756 0.0
  endloop
endfacet
facet normal 0.0 0.0 -1.0
  outer loop
    vertex 5.000000000000001 -6.000000000000001 0.0
    vertex -4.084700949612776 -1.0625184089179756 0.0
    vertex -3.800000000000003 -1.100000000000001 0.0
  endloop
endfacet
facet normal 0.0 0.0 -1.0
  outer loop
    vertex 5.000000000000001 -6.000000000000001 0.0
    vertex -3.800000000000003 -1.100000000000001 0.0
    vertex -3.5152990503872283 -1.0625184089179762 0.0
  endloop
endfacet
facet normal 0.0 0.0 -1.0
  outer loop
    vertex 5.000000000000001 -6.000000000000001 0.0
    vertex -3.5152990503872283 -1.0625184089179762 0.0
    vertex -3.250000000000001 -0.9526279441628835 0.0
  endloop
endfacet
facet normal 0.0 0.0 -1.0
  outer loop
    vertex 5.000000000000001 -6.000000000000001 0.0
    vertex -3.250000000000001 -0.9526279441628835 0.0
    vertex -3.0221825406947986 -0.7778174593052033 0.0
  endloop
endfacet
facet normal 0.0 0.0 -1.0
  outer loop
    vertex 5.000000000000001 -6.000000000000001 0.0
    vertex -3.0221825406947986 -0.7778174593052033 0.0
    vertex -2.847372055837118 -0.550000000000001 0.0
  endloop
endfacet
facet normal 0.0 0.0 -1.0
  outer loop
    vertex 5.000000000000001 -6.000000000000001 0.0
    vertex -2.847372055837118 -0.550000000000001 0.0
    vertex -2.737481591082026 -0.28470094961277387 0.0
  endloop
endfacet
facet normal 0.0 0.0 -1.0
  outer loop
    vertex 5.000000000000001 -6.000000000000001 0.0
    vertex -2.737481591082026 -0.28470094961277387 0.0
    vertex -2.7000000000000006 -1.233735336114705e-15 0.0
  endloop
endfacet
facet normal 0.0 0.0 -1.0
  outer loop
    vertex 5.000000000000001 -6.000000000000001 0.0
    vertex -2.7000000000000006 -1.233735336114705e-15 0.0
    vertex 2.7374815910820254 -0.28470094961277337 0.0
  endloop
endfacet
facet normal 0.0 0.0 -1.0
  outer loop
    vertex 2.7374815910820254 -0.28470094961277337 0.0
    vertex -2.7000000000000006 -1.233735336114705e-15 0.0
    vertex 2.700000000000001 -3.524958103184872e-16 0.0
  endloop
endfacet
facet normal 0.0 0.0 -1.0
  outer loop
    vertex 5.000000000000001 -6.000000000000001 0.0
    vertex 2.7374815910820254 -0.28470094961277337 0.0
    vertex 2.8473720558371185 -0.5500000000000006 0.0
  endloop
endfacet
facet normal 0.0 0.0 -1.0
  outer loop
    vertex 5.000000000000001 -6.000000000000001 0.0
    vertex 2.8473720558371185 -0.5500000000000006 0.0
    vertex 3.022182540694799 -0.777817459305203 0.0
  endloop
endfacet
facet normal 0.0 0.0 -1.0
  outer loop
    vertex 5.000000000000001 -6.000000000000001 0.0
    vertex 3.022182540694799 -0.777817459305203 0.0
    vertex 3.250000000000001 -0.9526279441628832 0.0
  endloop
endfacet
facet normal 0.0 0.0 -1.0
  outer loop
    vertex 5.000000000000001 -6.000000000000001 0.0
    vertex 3.250000000000001 -0.9526279441628832 0.0
    vertex 3.515299050387229 -1.0625184089179758 0.0
  endloop
endfacet
facet normal 0.0 0.0 -1.0
  outer loop
    vertex 5.000000000000001 -6.000000000000001 0.0
    vertex 3.515299050387229 -1.0625184089179758 0.0
    vertex 3.8000000000000016 -1.1000000000000005 0.0
  endloop
endfacet
facet normal 0.0 0.0 -1.0
  outer loop
    vertex 5.000000000000001 -6.000000000000001 0.0
    vertex 3.8000000000000016 -1.1000000000000005 0.0
    vertex 4.084700949612773 -1.0625184089179753 0.0
  endloop
endfacet
facet normal 0.0 0.0 -1.0
  outer loop
    vertex 5.000000000000001 -6.000000000000001 0.0
    vertex 4.084700949612773 -1.0625184089179753 0.0
    vertex 4.3500000000000005 -0.9526279441628829 0.0
  endloop
endfacet
facet normal 0.0 0.0 -1.0
  outer loop
    vertex 5.000000000000001 -6.000000000000001 0.0
    vertex 4.3500000000000005 -0.9526279441628829 0.0
    vertex 4.577817459305203 -0.7778174593052029 0.0
  endloop
endfacet
facet normal 0.0 0.0 -1.0
  outer loop
    vertex 5.000000000000001 -6.000000000000001 0.0
    vertex 4.577817459305203 -0.7778174593052029 0.0
    vertex 4.7526279441628825 -0.5500000000000009 0.0
  endloop
endfacet
facet normal 0.0 0.0 -1.0
  outer loop
    vertex 5.000000000000001 -6.000000000000001 0.0
    vertex 4.7526279441628825 -0.5500000000000009 0.0
    vertex 4.862518408917976 -0.28470094961277403 0.0
  endloop
endfacet
facet normal 0.0 0.0 -1.0
  outer loop
    vertex 5.000000000000001 -6.000000000000001 0.0
    vertex 4.862518408917976 -0.28470094961277403 0.0
    vertex 4.900000000000001 -1.5862311464331924e-15 0.0
  endloop
endfacet
facet normal 0.0 0.0 -1.0
  outer loop
    vertex 5.000000000000001 -6.000000000000001 0.0
    vertex 4.900000000000001 -1.5862311464331924e-15 0.0
    vertex 5.0 6.0 0.0
  endloop
endfacet
facet normal -0.7071067811865476 -0.7071067811865476 -0.0
  outer loop
    vertex -5.000000000000001 -5.500000000000001 0.9999999999999999
    vertex -4.500000000000001 -6.000000000000001 0.0
    vertex -4.500000000000001 -6.000000000000001 0.9999999999999999
  endloop
endfacet
facet normal -0.7071067811865476 -0.7071067811865476 -0.0
  outer loop
    vertex -4.500000000000001 -6.000000000000001 0.0
    vertex -5.000000000000001 -5.500000000000001 0.9999999999999999
    vertex -5.000000000000001 -5.500000000000001 0.0
  endloop
endfacet
facet normal -1.0 0.0 0.0
  outer loop
    vertex -5.000000000000001 5.5 0.9999999999999999
    vertex -5.000000000000001 -5.500000000000001 0.0
    vertex -5.000000000000001 -5.500000000000001 0.9999999999999999
  endloop
endfacet
facet normal -1.0 0.0 0.0
  outer loop
    vertex -5.000000000000001 -5.500000000000001 0.0
    vertex -5.000000000000001 5.5 0.9999999999999999
    vertex -5.000000000000001 5.5 0.0
  endloop
endfacet
facet normal -0.7071067811865476 0.7071067811865476 0.0
  outer loop
    vertex -4.500000000000001 6.0 0.9999999999999999
    vertex -5.000000000000001 5.5 0.0
    vertex -5.000000000000001 5.5 0.9999999999999999
  endloop
endfacet
facet normal -0.7071067811865476 0.7071067811865476 0.0
  outer loop
    vertex -5.000000000000001 5.5 0.0
    vertex -4.500000000000001 6.0 0.9999999999999999
    vertex -4.500000000000001 6.0 0.0
  endloop
endfacet
facet normal -7.420964427757625e-17 1.0 0.0
  outer loop
    vertex -4.500000000000001 6.0 0.9999999999999999
    vertex 5.0 6.0 0.0
    vertex -4.500000000000001 6.0 0.0
  endloop
endfacet
facet normal -7.420964427757625e-17 1.0 0.0
  outer loop
    vertex 5.0 6.0 0.0
    vertex -4.500000000000001 6.0 0.9999999999999999
    vertex 5.0 6.0 0.9999999999999999
  endloop
endfacet
facet normal 1.0 5.874930171974787e-17 0.0
  outer loop
    vertex 5.0 6.0 0.0
    vertex 5.000000000000001 -6.000000000000001 0.9999999999999999
    vertex 5.000000000000001 -6.000000000000001 0.0
  endloop
endfacet
facet normal 1.0 5.874930171974787e-17 0.0
  outer loop
    vertex 5.000000000000001 -6.000000000000001 0.9999999999999999
    vertex 5.0 6.0 0.0
    vertex 5.0 6.0 0.9999999999999999
  endloop
endfacet
facet normal -0.0 -1.0 -0.0
  outer loop
    vertex 5.000000000000001 -6.000000000000001 0.9999999999999999
    vertex -4.500000000000001 -6.000000000000001 0.0
    vertex 5.000000000000001 -6.000000000000001 0.0
  endloop
endfacet
facet normal -0.0 -1.0 -0.0
  outer loop
    vertex -4.500000000000001 -6.000000000000001 0.0
    vertex 5.000000000000001 -6.000000000000001 0.9999999999999999
    vertex -4.500000000000001 -6.000000000000001 0.9999999999999999
  endloop
endfacet
facet normal 0.0 0.0 -1.0
  outer loop
    vertex -4.862518408917976 0.28470094961277176 -0.9999999999999999
    vertex -4.8625184089179765 -0.2847009496127732 -0.9999999999999999
    vertex -4.900000000000001 -7.049916206369744e-16 -0.9999999999999999
  endloop
endfacet
facet normal 0.0 0.0 -1.0
  outer loop
    vertex -4.8625184089179765 -0.2847009496127732 -0.9999999999999999
    vertex -4.862518408917976 0.28470094961277176 -0.9999999999999999
    vertex -4.752627944162883 -0.5500000000000003 -0.9999999999999999
  endloop
endfacet
facet normal 0.0 0.0 -1.0
  outer loop
    vertex -4.752627944162883 -0.5500000000000003 -0.9999999999999999
    vertex -4.862518408917976 0.28470094961277176 -0.9999999999999999
    vertex -4.752627944162883 0.5499999999999988 -0.9999999999999999
  endloop
endfacet
facet normal 0.0 0.0 -1.0
  outer loop
    vertex -4.752627944162883 -0.5500000000000003 -0.9999999999999999
    vertex -4.752627944162883 0.5499999999999988 -0.9999999999999999
    vertex -4.577817459305204 0.777817459305201 -0.9999999999999999
  endloop
endfacet
facet normal 0.0 0.0 -1.0
  outer loop
    vertex -4.752627944162883 -0.5500000000000003 -0.9999999999999999
    vertex -4.577817459305204 0.777817459305201 -0.9999999999999999
    vertex -4.577817459305204 -0.7778174593052024 -0.9999999999999999
  endloop
endfacet
facet normal 0.0 0.0 -1.0
  outer loop
    vertex -4.577817459305204 -0.7778174593052024 -0.9999999999999999
    vertex -4.577817459305204 0.777817459305201 -0.9999999999999999
    vertex -4.350000000000001 0.9526279441628814 -0.9999999999999999
  endloop
endfacet
facet normal 0.0 0.0 -1.0
  outer loop
    vertex -4.577817459305204 -0.7778174593052024 -0.9999999999999999
    vertex -4.350000000000001 0.9526279441628814 -0.9999999999999999
    vertex -4.350000000000002 -0.9526279441628827 -0.9999999999999999
  endloop
endfacet
facet normal 0.0 0.0 -1.0
  outer loop
    vertex -4.350000000000002 -0.9526279441628827 -0.9999999999999999
    vertex -4.350000000000001 0.9526279441628814 -0.9999999999999999
    vertex -4.084700949612776 -1.0625184089179756 -0.9999999999999999
  endloop
endfacet
facet normal 0.0 0.0 -1.0
  outer loop
    vertex -4.084700949612776 -1.0625184089179756 -0.9999999999999999
    vertex -4.350000000000001 0.9526279441628814 -0.9999999999999999
    vertex -4.084700949612774 1.062518408917974 -0.9999999999999999
  endloop
endfacet
facet normal 0.0 0.0 -1.0
  outer loop
    vertex -4.084700949612776 -1.0625184089179756 -0.9999999999999999
    vertex -4.084700949612774 1.062518408917974 -0.9999999999999999
    vertex -3.800000000000003 -1.100000000000001 -0.9999999999999999
  endloop
endfacet
facet normal 0.0 0.0 -1.0
  outer loop
    vertex -3.800000000000003 -1.100000000000001 -0.9999999999999999
    vertex -4.084700949612774 1.062518408917974 -0.9999999999999999
    vertex -3.8000000000000016 1.0999999999999992 -0.9999999999999999
  endloop
endfacet
facet normal 0.0 0.0 -1.0
  outer loop
    vertex -3.800000000000003 -1.100000000000001 -0.9999999999999999
    vertex -3.8000000000000016 1.0999999999999992 -0.9999999999999999
    vertex -3.5152990503872283 -1.0625184089179762 -0.9999999999999999
  endloop
endfacet
facet normal 0.0 0.0 -1.0
  outer loop
    vertex -3.5152990503872283 -1.0625184089179762 -0.9999999999999999
    vertex -3.8000000000000016 1.0999999999999992 -0.9999999999999999
    vertex -3.5152990503872283 1.0625184089179744 -0.9999999999999999
  endloop
endfacet
facet normal 0.0 0.0 -1.0
  outer loop
    vertex -3.5152990503872283 -1.0625184089179762 -0.9999999999999999
    vertex -3.5152990503872283 1.0625184089179744 -0.9999999999999999
    vertex -3.250000000000001 0.9526279441628818 -0.9999999999999999
  endloop
endfacet
facet normal 0.0 0.0 -1.0
  outer loop
    vertex -3.5152990503872283 -1.0625184089179762 -0.9999999999999999
    vertex -3.250000000000001 0.9526279441628818 -0.9999999999999999
    vertex -3.250000000000001 -0.9526279441628835 -0.9999999999999999
  endloop
endfacet
facet normal 0.0 0.0 -1.0
  outer loop
    vertex -3.250000000000001 -0.9526279441628835 -0.9999999999999999
    vertex -3.250000000000001 0.9526279441628818 -0.9999999999999999
    vertex -3.0221825406947986 0.7778174593052014 -0.9999999999999999
  endloop
endfacet
facet normal 0.0 0.0 -1.0
  outer loop
    vertex -3.250000000000001 -0.9526279441628835 -0.9999999999999999
    vertex -3.0221825406947986 0.7778174593052014 -0.9999999999999999
    vertex -3.0221825406947986 -0.7778174593052033 -0.9999999999999999
  endloop
endfacet
facet normal 0.0 0.0 -1.0
  outer loop
    vertex -3.0221825406947986 -0.7778174593052033 -0.9999999999999999
    vertex -3.0221825406947986 0.7778174593052014 -0.9999999999999999
    vertex -2.847372055837118 0.5499999999999988 -0.9999999999999999
  endloop
endfacet
facet normal 0.0 0.0 -1.0
  outer loop
    vertex -3.0221825406947986 -0.7778174593052033 -0.9999999999999999
    vertex -2.847372055837118 0.5499999999999988 -0.9999999999999999
    vertex -2.847372055837118 -0.550000000000001 -0.9999999999999999
  endloop
endfacet
facet normal 0.0 0.0 -1.0
  outer loop
    vertex -2.847372055837118 -0.550000000000001 -0.9999999999999999
    vertex -2.847372055837118 0.5499999999999988 -0.9999999999999999
    vertex -2.7374815910820254 0.2847009496127716 -0.9999999999999999
  endloop
endfacet
facet normal 0.0 0.0 -1.0
  outer loop
    vertex -2.847372055837118 -0.550000000000001 -0.9999999999999999
    vertex -2.7374815910820254 0.2847009496127716 -0.9999999999999999
    vertex -2.737481591082026 -0.28470094961277387 -0.9999999999999999
  endloop
endfacet
facet normal 0.0 0.0 -1.0
  outer loop
    vertex -2.737481591082026 -0.28470094961277387 -0.9999999999999999
    vertex -2.7374815910820254 0.2847009496127716 -0.9999999999999999
    vertex -2.7000000000000006 -1.233735336114705e-15 -0.9999999999999999
  endloop
endfacet
facet normal -0.3826834323650918 -0.9238795325112861 -0.0
  outer loop
    vertex -4.084700949612776 -1.0625184089179756 0.0
    vertex -4.350000000000002 -0.9526279441628827 -0.9999999999999999
    vertex -4.084700949612776 -1.0625184089179756 -0.9999999999999999
  endloop
endfacet
facet normal -0.3826834323650918 -0.9238795325112861 -0.0
  outer loop
    vertex -4.350000000000002 -0.9526279441628827 -0.9999999999999999
    vertex -4.084700949612776 -1.0625184089179756 0.0
    vertex -4.350000000000002 -0.9526279441628827 0.0
  endloop
endfacet
facet normal -0.6087614290087214 -0.7933533402912346 -0.0
  outer loop
    vertex -4.350000000000002 -0.9526279441628827 0.0
    vertex -4.577817459305204 -0.7778174593052024 -0.9999999999999999
    vertex -4.350000000000002 -0.9526279441628827 -0.9999999999999999
  endloop
endfacet
facet normal -0.6087614290087214 -0.7933533402912346 -0.0
  outer loop
    vertex -4.577817459305204 -0.7778174593052024 -0.9999999999999999
    vertex -4.350000000000002 -0.9526279441628827 0.0
    vertex -4.577817459305204 -0.7778174593052024 0.0
  endloop
endfacet
facet normal -0.7933533402912359 -0.6087614290087197 -0.0
  outer loop
    vertex -4.752627944162883 -0.5500000000000003 0.0
    vertex -4.577817459305204 -0.7778174593052024 -0.9999999999999999
    vertex -4.577817459305204 -0.7778174593052024 0.0
  endloop
endfacet
facet normal -0.7933533402912359 -0.6087614290087197 -0.0
  outer loop
    vertex -4.577817459305204 -0.7778174593052024 -0.9999999999999999
    vertex -4.752627944162883 -0.5500000000000003 0.0
    vertex -4.752627944162883 -0.5500000000000003 -0.9999999999999999
  endloop
endfacet
facet normal -0.9238795325112863 -0.3826834323650909 -0.0
  outer loop
    vertex -4.8625184089179765 -0.2847009496127732 0.0
    vertex -4.752627944162883 -0.5500000000000003 -0.9999999999999999
    vertex -4.752627944162883 -0.5500000000000003 0.0
  endloop
endfacet
facet normal -0.9238795325112863 -0.3826834323650909 -0.0
  outer loop
    vertex -4.752627944162883 -0.5500000000000003 -0.9999999999999999
    vertex -4.8625184089179765 -0.2847009496127732 0.0
    vertex -4.8625184089179765 -0.2847009496127732 -0.9999999999999999
  endloop
endfacet
facet normal -0.9914448613738106 -0.13052619222005046 -0.0
  outer loop
    vertex -4.900000000000001 -7.049916206369744e-16 0.0
    vertex -4.8625184089179765 -0.2847009496127732 -0.9999999999999999
    vertex -4.8625184089179765 -0.2847009496127732 0.0
  endloop
endfacet
facet normal -0.9914448613738106 -0.13052619222005046 -0.0
  outer loop
    vertex -4.8625184089179765 -0.2847009496127732 -0.9999999999999999
    vertex -4.900000000000001 -7.049916206369744e-16 0.0
    vertex -4.900000000000001 -7.049916206369744e-16 -0.9999999999999999
  endloop
endfacet
facet normal -0.9914448613738103 0.13052619222005288 0.0
  outer loop
    vertex -4.862518408917976 0.28470094961277176 0.0
    vertex -4.900000000000001 -7.049916206369744e-16 -0.9999999999999999
    vertex -4.900000000000001 -7.049916206369744e-16 0.0
  endloop
endfacet
facet normal -0.9914448613738103 0.13052619222005288 0.0
  outer loop
    vertex -4.900000000000001 -7.049916206369744e-16 -0.9999999999999999
    vertex -4.862518408917976 0.28470094961277176 0.0
    vertex -4.862518408917976 0.28470094961277176 -0.9999999999999999
  endloop
endfacet
facet normal -0.9238795325112873 0.38268343236508884 0.0
  outer loop
    vertex -4.752627944162883 0.5499999999999988 0.0
    vertex -4.862518408917976 0.28470094961277176 -0.9999999999999999
    vertex -4.862518408917976 0.28470094961277176 0.0
  endloop
endfacet
facet normal -0.9238795325112873 0.38268343236508884 0.0
  outer loop
    vertex -4.862518408917976 0.28470094961277176 -0.9999999999999999
    vertex -4.752627944162883 0.5499999999999988 0.0
    vertex -4.752627944162883 0.5499999999999988 -0.9999999999999999
  endloop
endfacet
facet normal -0.7933533402912359 0.6087614290087197 0.0
  outer loop
    vertex -4.577817459305204 0.777817459305201 0.0
    vertex -4.752627944162883 0.5499999999999988 -0.9999999999999999
    vertex -4.752627944162883 0.5499999999999988 0.0
  endloop
endfacet
facet normal -0.7933533402912359 0.6087614290087197 0.0
  outer loop
    vertex -4.752627944162883 0.5499999999999988 -0.9999999999999999
    vertex -4.577817459305204 0.777817459305201 0.0
    vertex -4.577817459305204 0.777817459305201 -0.9999999999999999
  endloop
endfacet
facet normal -0.6087614290087207 0.7933533402912353 0.0
  outer loop
    vertex -4.577817459305204 0.777817459305201 0.0
    vertex -4.350000000000001 0.9526279441628814 -0.9999999999999999
    vertex -4.577817459305204 0.777817459305201 -0.9999999999999999
  endloop
endfacet
facet normal -0.6087614290087207 0.7933533402912353 0.0
  outer loop
    vertex -4.350000000000001 0.9526279441628814 -0.9999999999999999
    vertex -4.577817459305204 0.777817459305201 0.0
    vertex -4.350000000000001 0.9526279441628814 0.0
  endloop
endfacet
facet normal -0.38268343236508984 0.9238795325112867 0.0
  outer loop
    vertex -4.350000000000001 0.9526279441628814 0.0
    vertex -4.084700949612774 1.062518408917974 -0.9999999999999999
    vertex -4.350000000000001 0.9526279441628814 -0.9999999999999999
  endloop
endfacet
facet normal -0.38268343236508984 0.9238795325112867 0.0
  outer loop
    vertex -4.084700949612774 1.062518408917974 -0.9999999999999999
    vertex -4.350000000000001 0.9526279441628814 0.0
    vertex -4.084700949612774 1.062518408917974 0.0
  endloop
endfacet
facet normal -0.1305261922200528 0.9914448613738103 0.0
  outer loop
    vertex -4.084700949612774 1.062518408917974 0.0
    vertex -3.8000000000000016 1.0999999999999992 -0.9999999999999999
    vertex -4.084700949612774 1.062518408917974 -0.9999999999999999
  endloop
endfacet
facet normal -0.1305261922200528 0.9914448613738103 0.0
  outer loop
    vertex -3.8000000000000016 1.0999999999999992 -0.9999999999999999
    vertex -4.084700949612774 1.062518408917974 0.0
    vertex -3.8000000000000016 1.0999999999999992 0.0
  endloop
endfacet
facet normal 0.13052619222005127 0.9914448613738105 0.0
  outer loop
    vertex -3.8000000000000016 1.0999999999999992 0.0
    vertex -3.5152990503872283 1.0625184089179744 -0.9999999999999999
    vertex -3.8000000000000016 1.0999999999999992 -0.9999999999999999
  endloop
endfacet
facet normal 0.13052619222005127 0.9914448613738105 0.0
  outer loop
    vertex -3.5152990503872283 1.0625184089179744 -0.9999999999999999
    vertex -3.8000000000000016 1.0999999999999992 0.0
    vertex -3.5152990503872283 1.0625184089179744 0.0
  endloop
endfacet
facet normal 0.38268343236508984 0.9238795325112867 0.0
  outer loop
    vertex -3.5152990503872283 1.0625184089179744 0.0
    vertex -3.250000000000001 0.9526279441628818 -0.9999999999999999
    vertex -3.5152990503872283 1.0625184089179744 -0.9999999999999999
  endloop
endfacet
facet normal 0.38268343236508984 0.9238795325112867 0.0
  outer loop
    vertex -3.250000000000001 0.9526279441628818 -0.9999999999999999
    vertex -3.5152990503872283 1.0625184089179744 0.0
    vertex -3.250000000000001 0.9526279441628818 0.0
  endloop
endfacet
facet normal 0.6087614290087207 0.7933533402912353 0.0
  outer loop
    vertex -3.250000000000001 0.9526279441628818 0.0
    vertex -3.0221825406947986 0.7778174593052014 -0.9999999999999999
    vertex -3.250000000000001 0.9526279441628818 -0.9999999999999999
  endloop
endfacet
facet normal 0.6087614290087207 0.7933533402912353 0.0
  outer loop
    vertex -3.0221825406947986 0.7778174593052014 -0.9999999999999999
    vertex -3.250000000000001 0.9526279441628818 0.0
    vertex -3.0221825406947986 0.7778174593052014 0.0
  endloop
endfacet
facet normal 0.7933533402912353 0.6087614290087207 0.0
  outer loop
    vertex -3.0221825406947986 0.7778174593052014 -0.9999999999999999
    vertex -2.847372055837118 0.5499999999999988 0.0
    vertex -2.847372055837118 0.5499999999999988 -0.9999999999999999
  endloop
endfacet
facet normal 0.7933533402912353 0.6087614290087207 0.0
  outer loop
    vertex -2.847372055837118 0.5499999999999988 0.0
    vertex -3.0221825406947986 0.7778174593052014 -0.9999999999999999
    vertex -3.0221825406947986 0.7778174593052014 0.0
  endloop
endfacet
facet normal 0.9238795325112865 0.3826834323650907 0.0
  outer loop
    vertex -2.847372055837118 0.5499999999999988 -0.9999999999999999
    vertex -2.7374815910820254 0.2847009496127716 0.0
    vertex -2.7374815910820254 0.2847009496127716 -0.9999999999999999
  endloop
endfacet
facet normal 0.9238795325112865 0.3826834323650907 0.0
  outer loop
    vertex -2.7374815910820254 0.2847009496127716 0.0
    vertex -2.847372055837118 0.5499999999999988 -0.9999999999999999
    vertex -2.847372055837118 0.5499999999999988 0.0
  endloop
endfacet
facet normal 0.9914448613738106 0.1305261922200503 0.0
  outer loop
    vertex -2.7374815910820254 0.2847009496127716 -0.9999999999999999
    vertex -2.7000000000000006 -1.233735336114705e-15 0.0
    vertex -2.7000000000000006 -1.233735336114705e-15 -0.9999999999999999
  endloop
endfacet
facet normal 0.9914448613738106 0.1305261922200503 0.0
  outer loop
    vertex -2.7000000000000006 -1.233735336114705e-15 0.0
    vertex -2.7374815910820254 0.2847009496127716 -0.9999999999999999
    vertex -2.7374815910820254 0.2847009496127716 0.0
  endloop
endfacet
facet normal 0.9914448613738103 -0.1305261922200528 0.0
  outer loop
    vertex -2.7000000000000006 -1.233735336114705e-15 -0.9999999999999999
    vertex -2.737481591082026 -0.28470094961277387 0.0
    vertex -2.737481591082026 -0.28470094961277387 -0.9999999999999999
  endloop
endfacet
facet normal 0.9914448613738103 -0.1305261922200528 0.0
  outer loop
    vertex -2.737481591082026 -0.28470094961277387 0.0
    vertex -2.7000000000000006 -1.233735336114705e-15 -0.9999999999999999
    vertex -2.7000000000000006 -1.233735336114705e-15 0.0
  endloop
endfacet
facet normal 0.9238795325112874 -0.3826834323650888 0.0
  outer loop
    vertex -2.737481591082026 -0.28470094961277387 -0.9999999999999999
    vertex -2.847372055837118 -0.550000000000001 0.0
    vertex -2.847372055837118 -0.550000000000001 -0.9999999999999999
  endloop
endfacet
facet normal 0.9238795325112874 -0.3826834323650888 0.0
  outer loop
    vertex -2.847372055837118 -0.550000000000001 0.0
    vertex -2.737481591082026 -0.28470094961277387 -0.9999999999999999
    vertex -2.737481591082026 -0.28470094961277387 0.0
  endloop
endfacet
facet normal 0.793353340291235 -0.6087614290087211 0.0
  outer loop
    vertex -2.847372055837118 -0.550000000000001 -0.9999999999999999
    vertex -3.0221825406947986 -0.7778174593052033 0.0
    vertex -3.0221825406947986 -0.7778174593052033 -0.9999999999999999
  endloop
endfacet
facet normal 0.793353340291235 -0.6087614290087211 0.0
  outer loop
    vertex -3.0221825406947986 -0.7778174593052033 0.0
    vertex -2.847372055837118 -0.550000000000001 -0.9999999999999999
    vertex -2.847372055837118 -0.550000000000001 0.0
  endloop
endfacet
facet normal 0.6087614290087202 -0.7933533402912355 0.0
  outer loop
    vertex -3.0221825406947986 -0.7778174593052033 0.0
    vertex -3.250000000000001 -0.9526279441628835 -0.9999999999999999
    vertex -3.0221825406947986 -0.7778174593052033 -0.9999999999999999
  endloop
endfacet
facet normal 0.6087614290087202 -0.7933533402912355 0.0
  outer loop
    vertex -3.250000000000001 -0.9526279441628835 -0.9999999999999999
    vertex -3.0221825406947986 -0.7778174593052033 0.0
    vertex -3.250000000000001 -0.9526279441628835 0.0
  endloop
endfacet
facet normal 0.38268343236508984 -0.9238795325112867 0.0
  outer loop
    vertex -3.250000000000001 -0.9526279441628835 0.0
    vertex -3.5152990503872283 -1.0625184089179762 -0.9999999999999999
    vertex -3.250000000000001 -0.9526279441628835 -0.9999999999999999
  endloop
endfacet
facet normal 0.38268343236508984 -0.9238795325112867 0.0
  outer loop
    vertex -3.5152990503872283 -1.0625184089179762 -0.9999999999999999
    vertex -3.250000000000001 -0.9526279441628835 0.0
    vertex -3.5152990503872283 -1.0625184089179762 0.0
  endloop
endfacet
facet normal 0.13052619222005066 -0.9914448613738107 0.0
  outer loop
    vertex -3.5152990503872283 -1.0625184089179762 0.0
    vertex -3.800000000000003 -1.100000000000001 -0.9999999999999999
    vertex -3.5152990503872283 -1.0625184089179762 -0.9999999999999999
  endloop
endfacet
facet normal 0.13052619222005066 -0.9914448613738107 0.0
  outer loop
    vertex -3.800000000000003 -1.100000000000001 -0.9999999999999999
    vertex -3.5152990503872283 -1.0625184089179762 0.0
    vertex -3.800000000000003 -1.100000000000001 0.0
  endloop
endfacet
facet normal -0.13052619222005338 -0.9914448613738102 -0.0
  outer loop
    vertex -3.800000000000003 -1.100000000000001 0.0
    vertex -4.084700949612776 -1.0625184089179756 -0.9999999999999999
    vertex -3.800000000000003 -1.100000000000001 -0.9999999999999999
  endloop
endfacet
facet normal -0.13052619222005338 -0.9914448613738102 -0.0
  outer loop
    vertex -4.084700949612776 -1.0625184089179756 -0.9999999999999999
    vertex -3.800000000000003 -1.100000000000001 0.0
    vertex -4.084700949612776 -1.0625184089179756 0.0
  endloop
endfacet
facet normal 0.0 0.0 -1.0
  outer loop
    vertex 2.7374815910820254 0.28470094961277265 -0.9999999999999999
    vertex 2.7374815910820254 -0.28470094961277337 -0.9999999999999999
    vertex 2.700000000000001 -3.524958103184872e-16 -0.9999999999999999
  endloop
endfacet
facet normal 0.0 0.0 -1.0
  outer loop
    vertex 2.7374815910820254 -0.28470094961277337 -0.9999999999999999
    vertex 2.7374815910820254 0.28470094961277265 -0.9999999999999999
    vertex 2.8473720558371185 0.55 -0.9999999999999999
  endloop
endfacet
facet normal 0.0 0.0 -1.0
  outer loop
    vertex 2.7374815910820254 -0.28470094961277337 -0.9999999999999999
    vertex 2.8473720558371185 0.55 -0.9999999999999999
    vertex 2.8473720558371185 -0.5500000000000006 -0.9999999999999999
  endloop
endfacet
facet normal 0.0 0.0 -1.0
  outer loop
    vertex 2.8473720558371185 -0.5500000000000006 -0.9999999999999999
    vertex 2.8473720558371185 0.55 -0.9999999999999999
    vertex 3.0221825406947986 0.7778174593052023 -0.9999999999999999
  endloop
endfacet
facet normal 0.0 0.0 -1.0
  outer loop
    vertex 2.8473720558371185 -0.5500000000000006 -0.9999999999999999
    vertex 3.0221825406947986 0.7778174593052023 -0.9999999999999999
    vertex 3.022182540694799 -0.777817459305203 -0.9999999999999999
  endloop
endfacet
facet normal 0.0 0.0 -1.0
  outer loop
    vertex 3.022182540694799 -0.777817459305203 -0.9999999999999999
    vertex 3.0221825406947986 0.7778174593052023 -0.9999999999999999
    vertex 3.250000000000001 0.9526279441628823 -0.9999999999999999
  endloop
endfacet
facet normal 0.0 0.0 -1.0
  outer loop
    vertex 3.022182540694799 -0.777817459305203 -0.9999999999999999
    vertex 3.250000000000001 0.9526279441628823 -0.9999999999999999
    vertex 3.250000000000001 -0.9526279441628832 -0.9999999999999999
  endloop
endfacet
facet normal 0.0 0.0 -1.0
  outer loop
    vertex 3.250000000000001 -0.9526279441628832 -0.9999999999999999
    vertex 3.250000000000001 0.9526279441628823 -0.9999999999999999
    vertex 3.5152990503872283 1.0625184089179749 -0.9999999999999999
  endloop
endfacet
facet normal 0.0 0.0 -1.0
  outer loop
    vertex 3.250000000000001 -0.9526279441628832 -0.9999999999999999
    vertex 3.5152990503872283 1.0625184089179749 -0.9999999999999999
    vertex 3.515299050387229 -1.0625184089179758 -0.9999999999999999
  endloop
endfacet
facet normal 0.0 0.0 -1.0
  outer loop
    vertex 3.515299050387229 -1.0625184089179758 -0.9999999999999999
    vertex 3.5152990503872283 1.0625184089179749 -0.9999999999999999
    vertex 3.8000000000000003 1.0999999999999996 -0.9999999999999999
  endloop
endfacet
facet normal 0.0 0.0 -1.0
  outer loop
    vertex 3.515299050387229 -1.0625184089179758 -0.9999999999999999
    vertex 3.8000000000000003 1.0999999999999996 -0.9999999999999999
    vertex 3.8000000000000016 -1.1000000000000005 -0.9999999999999999
  endloop
endfacet
facet normal 0.0 0.0 -1.0
  outer loop
    vertex 3.8000000000000016 -1.1000000000000005 -0.9999999999999999
    vertex 3.8000000000000003 1.0999999999999996 -0.9999999999999999
    vertex 4.084700949612773 1.0625184089179749 -0.9999999999999999
  endloop
endfacet
facet normal 0.0 0.0 -1.0
  outer loop
    vertex 3.8000000000000016 -1.1000000000000005 -0.9999999999999999
    vertex 4.084700949612773 1.0625184089179749 -0.9999999999999999
    vertex 4.084700949612773 -1.0625184089179753 -0.9999999999999999
  endloop
endfacet
facet normal 0.0 0.0 -1.0
  outer loop
    vertex 4.084700949612773 -1.0625184089179753 -0.9999999999999999
    vertex 4.084700949612773 1.0625184089179749 -0.9999999999999999
    vertex 4.3500000000000005 0.9526279441628823 -0.9999999999999999
  endloop
endfacet
facet normal 0.0 0.0 -1.0
  outer loop
    vertex 4.084700949612773 -1.0625184089179753 -0.9999999999999999
    vertex 4.3500000000000005 0.9526279441628823 -0.9999999999999999
    vertex 4.3500000000000005 -0.9526279441628829 -0.9999999999999999
  endloop
endfacet
facet normal 0.0 0.0 -1.0
  outer loop
    vertex 4.3500000000000005 -0.9526279441628829 -0.9999999999999999
    vertex 4.3500000000000005 0.9526279441628823 -0.9999999999999999
    vertex 4.577817459305204 0.7778174593052005 -0.9999999999999999
  endloop
endfacet
facet normal 0.0 0.0 -1.0
  outer loop
    vertex 4.3500000000000005 -0.9526279441628829 -0.9999999999999999
    vertex 4.577817459305204 0.7778174593052005 -0.9999999999999999
    vertex 4.577817459305203 -0.7778174593052029 -0.9999999999999999
  endloop
endfacet
facet normal 0.0 0.0 -1.0
  outer loop
    vertex 4.577817459305203 -0.7778174593052029 -0.9999999999999999
    vertex 4.577817459305204 0.7778174593052005 -0.9999999999999999
    vertex 4.7526279441628825 -0.5500000000000009 -0.9999999999999999
  endloop
endfacet
facet normal 0.0 0.0 -1.0
  outer loop
    vertex 4.7526279441628825 -0.5500000000000009 -0.9999999999999999
    vertex 4.577817459305204 0.7778174593052005 -0.9999999999999999
    vertex 4.752627944162885 0.5499999999999979 -0.9999999999999999
  endloop
endfacet
facet normal 0.0 0.0 -1.0
  outer loop
    vertex 4.7526279441628825 -0.5500000000000009 -0.9999999999999999
    vertex 4.752627944162885 0.5499999999999979 -0.9999999999999999
    vertex 4.862518408917976 -0.28470094961277403 -0.9999999999999999
  endloop
endfacet
facet normal 0.0 0.0 -1.0
  outer loop
    vertex 4.862518408917976 -0.28470094961277403 -0.9999999999999999
    vertex 4.752627944162885 0.5499999999999979 -0.9999999999999999
    vertex 4.8625184089179765 0.28470094961277104 -0.9999999999999999
  endloop
endfacet
facet normal 0.0 0.0 -1.0
  outer loop
    vertex 4.862518408917976 -0.28470094961277403 -0.9999999999999999
    vertex 4.8625184089179765 0.28470094961277104 -0.9999999999999999
    vertex 4.900000000000001 -1.5862311464331924e-15 -0.9999999999999999
  endloop
endfacet
facet normal -0.9238795325112865 -0.3826834323650907 -0.0
  outer loop
    vertex 2.7374815910820254 -0.28470094961277337 0.0
    vertex 2.8473720558371185 -0.5500000000000006 -0.9999999999999999
    vertex 2.8473720558371185 -0.5500000000000006 0.0
  endloop
endfacet
facet normal -0.9238795325112865 -0.3826834323650907 -0.0
  outer loop
    vertex 2.8473720558371185 -0.5500000000000006 -0.9999999999999999
    vertex 2.7374815910820254 -0.28470094961277337 0.0
    vertex 2.7374815910820254 -0.28470094961277337 -0.9999999999999999
  endloop
endfacet
facet normal -0.9914448613738107 -0.13052619222005024 -0.0
  outer loop
    vertex 2.700000000000001 -3.524958103184872e-16 0.0
    vertex 2.7374815910820254 -0.28470094961277337 -0.9999999999999999
    vertex 2.7374815910820254 -0.28470094961277337 0.0
  endloop
endfacet
facet normal -0.9914448613738107 -0.13052619222005024 -0.0
  outer loop
    vertex 2.7374815910820254 -0.28470094961277337 -0.9999999999999999
    vertex 2.700000000000001 -3.524958103184872e-16 0.0
    vertex 2.700000000000001 -3.524958103184872e-16 -0.9999999999999999
  endloop
endfacet
facet normal -0.9914448613738107 0.13052619222005024 0.0
  outer loop
    vertex 2.7374815910820254 0.28470094961277265 0.0
    vertex 2.700000000000001 -3.524958103184872e-16 -0.9999999999999999
    vertex 2.700000000000001 -3.524958103184872e-16 0.0
  endloop
endfacet
facet normal -0.9914448613738107 0.13052619222005024 0.0
  outer loop
    vertex 2.700000000000001 -3.524958103184872e-16 -0.9999999999999999
    vertex 2.7374815910820254 0.28470094961277265 0.0
    vertex 2.7374815910820254 0.28470094961277265 -0.9999999999999999
  endloop
endfacet
facet normal -0.9238795325112866 0.3826834323650905 0.0
  outer loop
    vertex 2.8473720558371185 0.55 0.0
    vertex 2.7374815910820254 0.28470094961277265 -0.9999999999999999
    vertex 2.7374815910820254 0.28470094961277265 0.0
  endloop
endfacet
facet normal -0.9238795325112866 0.3826834323650905 0.0
  outer loop
    vertex 2.7374815910820254 0.28470094961277265 -0.9999999999999999
    vertex 2.8473720558371185 0.55 0.0
    vertex 2.8473720558371185 0.55 -0.9999999999999999
  endloop
endfacet
facet normal -0.7933533402912354 0.6087614290087204 0.0
  outer loop
    vertex 3.0221825406947986 0.7778174593052023 0.0
    vertex 2.8473720558371185 0.55 -0.9999999999999999
    vertex 2.8473720558371185 0.55 0.0
  endloop
endfacet
facet normal -0.7933533402912354 0.6087614290087204 0.0
  outer loop
    vertex 2.8473720558371185 0.55 -0.9999999999999999
    vertex 3.0221825406947986 0.7778174593052023 0.0
    vertex 3.0221825406947986 0.7778174593052023 -0.9999999999999999
  endloop
endfacet
facet normal -0.6087614290087199 0.7933533402912359 0.0
  outer loop
    vertex 3.0221825406947986 0.7778174593052023 0.0
    vertex 3.250000000000001 0.9526279441628823 -0.9999999999999999
    vertex 3.0221825406947986 0.7778174593052023 -0.9999999999999999
  endloop
endfacet
facet normal -0.6087614290087199 0.7933533402912359 0.0
  outer loop
    vertex 3.250000000000001 0.9526279441628823 -0.9999999999999999
    vertex 3.0221825406947986 0.7778174593052023 0.0
    vertex 3.250000000000001 0.9526279441628823 0.0
  endloop
endfacet
facet normal -0.38268343236508984 0.9238795325112867 0.0
  outer loop
    vertex 3.250000000000001 0.9526279441628823 0.0
    vertex 3.5152990503872283 1.0625184089179749 -0.9999999999999999
    vertex 3.250000000000001 0.9526279441628823 -0.9999999999999999
  endloop
endfacet
facet normal -0.38268343236508984 0.9238795325112867 0.0
  outer loop
    vertex 3.5152990503872283 1.0625184089179749 -0.9999999999999999
    vertex 3.250000000000001 0.9526279441628823 0.0
    vertex 3.5152990503872283 1.0625184089179749 0.0
  endloop
endfacet
facet normal -0.1305261922200519 0.9914448613738104 0.0
  outer loop
    vertex 3.5152990503872283 1.0625184089179749 0.0
    vertex 3.8000000000000003 1.0999999999999996 -0.9999999999999999
    vertex 3.5152990503872283 1.0625184089179749 -0.9999999999999999
  endloop
endfacet
facet normal -0.1305261922200519 0.9914448613738104 0.0
  outer loop
    vertex 3.8000000000000003 1.0999999999999996 -0.9999999999999999
    vertex 3.5152990503872283 1.0625184089179749 0.0
    vertex 3.8000000000000003 1.0999999999999996 0.0
  endloop
endfacet
facet normal 0.13052619222005127 0.9914448613738105 0.0
  outer loop
    vertex 3.8000000000000003 1.0999999999999996 0.0
    vertex 4.084700949612773 1.0625184089179749 -0.9999999999999999
    vertex 3.8000000000000003 1.0999999999999996 -0.9999999999999999
  endloop
endfacet
facet normal 0.13052619222005127 0.9914448613738105 0.0
  outer loop
    vertex 4.084700949612773 1.0625184089179749 -0.9999999999999999
    vertex 3.8000000000000003 1.0999999999999996 0.0
    vertex 4.084700949612773 1.0625184089179749 0.0
  endloop
endfacet
facet normal 0.38268343236508984 0.9238795325112867 0.0
  outer loop
    vertex 4.084700949612773 1.0625184089179749 0.0
    vertex 4.3500000000000005 0.9526279441628823 -0.9999999999999999
    vertex 4.084700949612773 1.0625184089179749 -0.9999999999999999
  endloop
endfacet
facet normal 0.38268343236508984 0.9238795325112867 0.0
  outer loop
    vertex 4.3500000000000005 0.9526279441628823 -0.9999999999999999
    vertex 4.084700949612773 1.0625184089179749 0.0
    vertex 4.3500000000000005 0.9526279441628823 0.0
  endloop
endfacet
facet normal 0.6087614290087213 0.7933533402912346 0.0
  outer loop
    vertex 4.3500000000000005 0.9526279441628823 0.0
    vertex 4.577817459305204 0.7778174593052005 -0.9999999999999999
    vertex 4.3500000000000005 0.9526279441628823 -0.9999999999999999
  endloop
endfacet
facet normal 0.6087614290087213 0.7933533402912346 0.0
  outer loop
    vertex 4.577817459305204 0.7778174593052005 -0.9999999999999999
    vertex 4.3500000000000005 0.9526279441628823 0.0
    vertex 4.577817459305204 0.7778174593052005 0.0
  endloop
endfacet
facet normal 0.7933533402912353 0.6087614290087207 0.0
  outer loop
    vertex 4.577817459305204 0.7778174593052005 -0.9999999999999999
    vertex 4.752627944162885 0.5499999999999979 0.0
    vertex 4.752627944162885 0.5499999999999979 -0.9999999999999999
  endloop
endfacet
facet normal 0.7933533402912353 0.6087614290087207 0.0
  outer loop
    vertex 4.752627944162885 0.5499999999999979 0.0
    vertex 4.577817459305204 0.7778174593052005 -0.9999999999999999
    vertex 4.577817459305204 0.7778174593052005 0.0
  endloop
endfacet
facet normal 0.9238795325112881 0.382683432365087 0.0
  outer loop
    vertex 4.752627944162885 0.5499999999999979 -0.9999999999999999
    vertex 4.8625184089179765 0.28470094961277104 0.0
    vertex 4.8625184089179765 0.28470094961277104 -0.9999999999999999
  endloop
endfacet
facet normal 0.9238795325112881 0.382683432365087 0.0
  outer loop
    vertex 4.8625184089179765 0.28470094961277104 0.0
    vertex 4.752627944162885 0.5499999999999979 -0.9999999999999999
    vertex 4.752627944162885 0.5499999999999979 0.0
  endloop
endfacet
facet normal 0.9914448613738106 0.13052619222005038 0.0
  outer loop
    vertex 4.8625184089179765 0.28470094961277104 -0.9999999999999999
    vertex 4.900000000000001 -1.5862311464331924e-15 0.0
    vertex 4.900000000000001 -1.5862311464331924e-15 -0.9999999999999999
  endloop
endfacet
facet normal 0.9914448613738106 0.13052619222005038 0.0
  outer loop
    vertex 4.900000000000001 -1.5862311464331924e-15 0.0
    vertex 4.8625184089179765 0.28470094961277104 -0.9999999999999999
    vertex 4.8625184089179765 0.28470094961277104 0.0
  endloop
endfacet
facet normal 0.9914448613738103 -0.13052619222005288 0.0
  outer loop
    vertex 4.900000000000001 -1.5862311464331924e-15 -0.9999999999999999
    vertex 4.862518408917976 -0.28470094961277403 0.0
    vertex 4.862518408917976 -0.28470094961277403 -0.9999999999999999
  endloop
endfacet
facet normal 0.9914448613738103 -0.13052619222005288 0.0
  outer loop
    vertex 4.862518408917976 -0.28470094961277403 0.0
    vertex 4.900000000000001 -1.5862311464331924e-15 -0.9999999999999999
    vertex 4.900000000000001 -1.5862311464331924e-15 0.0
  endloop
endfacet
facet normal 0.9238795325112863 -0.3826834323650911 0.0
  outer loop
    vertex 4.862518408917976 -0.28470094961277403 -0.9999999999999999
    vertex 4.7526279441628825 -0.5500000000000009 0.0
    vertex 4.7526279441628825 -0.5500000000000009 -0.9999999999999999
  endloop
endfacet
facet normal 0.9238795325112863 -0.3826834323650911 0.0
  outer loop
    vertex 4.7526279441628825 -0.5500000000000009 0.0
    vertex 4.862518408917976 -0.28470094961277403 -0.9999999999999999
    vertex 4.862518408917976 -0.28470094961277403 0.0
  endloop
endfacet
facet normal 0.7933533402912356 -0.6087614290087201 0.0
  outer loop
    vertex 4.7526279441628825 -0.5500000000000009 -0.9999999999999999
    vertex 4.577817459305203 -0.7778174593052029 0.0
    vertex 4.577817459305203 -0.7778174593052029 -0.9999999999999999
  endloop
endfacet
facet normal 0.7933533402912356 -0.6087614290087201 0.0
  outer loop
    vertex 4.577817459305203 -0.7778174593052029 0.0
    vertex 4.7526279441628825 -0.5500000000000009 -0.9999999999999999
    vertex 4.7526279441628825 -0.5500000000000009 0.0
  endloop
endfacet
facet normal 0.6087614290087197 -0.793353340291236 0.0
  outer loop
    vertex 4.577817459305203 -0.7778174593052029 0.0
    vertex 4.3500000000000005 -0.9526279441628829 -0.9999999999999999
    vertex 4.577817459305203 -0.7778174593052029 -0.9999999999999999
  endloop
endfacet
facet normal 0.6087614290087197 -0.793353340291236 0.0
  outer loop
    vertex 4.3500000000000005 -0.9526279441628829 -0.9999999999999999
    vertex 4.577817459305203 -0.7778174593052029 0.0
    vertex 4.3500000000000005 -0.9526279441628829 0.0
  endloop
endfacet
facet normal 0.38268343236508934 -0.923879532511287 0.0
  outer loop
    vertex 4.3500000000000005 -0.9526279441628829 0.0
    vertex 4.084700949612773 -1.0625184089179753 -0.9999999999999999
    vertex 4.3500000000000005 -0.9526279441628829 -0.9999999999999999
  endloop
endfacet
facet normal 0.38268343236508934 -0.923879532511287 0.0
  outer loop
    vertex 4.084700949612773 -1.0625184089179753 -0.9999999999999999
    vertex 4.3500000000000005 -0.9526279441628829 0.0
    vertex 4.084700949612773 -1.0625184089179753 0.0
  endloop
endfacet
facet normal 0.13052619222005313 -0.9914448613738104 0.0
  outer loop
    vertex 4.084700949612773 -1.0625184089179753 0.0
    vertex 3.8000000000000016 -1.1000000000000005 -0.9999999999999999
    vertex 4.084700949612773 -1.0625184089179753 -0.9999999999999999
  endloop
endfacet
facet normal 0.13052619222005313 -0.9914448613738104 0.0
  outer loop
    vertex 3.8000000000000016 -1.1000000000000005 -0.9999999999999999
    vertex 4.084700949612773 -1.0625184089179753 0.0
    vertex 3.8000000000000016 -1.1000000000000005 0.0
  endloop
endfacet
facet normal -0.130526192220051 -0.9914448613738106 -0.0
  outer loop
    vertex 3.8000000000000016 -1.1000000000000005 0.0
    vertex 3.515299050387229 -1.0625184089179758 -0.9999999999999999
    vertex 3.8000000000000016 -1.1000000000000005 -0.9999999999999999
  endloop
endfacet
facet normal -0.130526192220051 -0.9914448613738106 -0.0
  outer loop
    vertex 3.515299050387229 -1.0625184089179758 -0.9999999999999999
    vertex 3.8000000000000016 -1.1000000000000005 0.0
    vertex 3.515299050387229 -1.0625184089179758 0.0
  endloop
endfacet
facet normal -0.382683432365089 -0.9238795325112872 -0.0
  outer loop
    vertex 3.515299050387229 -1.0625184089179758 0.0
    vertex 3.250000000000001 -0.9526279441628832 -0.9999999999999999
    vertex 3.515299050387229 -1.0625184089179758 -0.9999999999999999
  endloop
endfacet
facet normal -0.382683432365089 -0.9238795325112872 -0.0
  outer loop
    vertex 3.250000000000001 -0.9526279441628832 -0.9999999999999999
    vertex 3.515299050387229 -1.0625184089179758 0.0
    vertex 3.250000000000001 -0.9526279441628832 0.0
  endloop
endfacet
facet normal -0.6087614290087208 -0.793353340291235 -0.0
  outer loop
    vertex 3.250000000000001 -0.9526279441628832 0.0
    vertex 3.022182540694799 -0.777817459305203 -0.9999999999999999
    vertex 3.250000000000001 -0.9526279441628832 -0.9999999999999999
  endloop
endfacet
facet normal -0.6087614290087208 -0.793353340291235 -0.0
  outer loop
    vertex 3.022182540694799 -0.777817459305203 -0.9999999999999999
    vertex 3.250000000000001 -0.9526279441628832 0.0
    vertex 3.022182540694799 -0.777817459305203 0.0
  endloop
endfacet
facet normal -0.793353340291235 -0.608761429008721 -0.0
  outer loop
    vertex 2.8473720558371185 -0.5500000000000006 0.0
    vertex 3.022182540694799 -0.777817459305203 -0.9999999999999999
    vertex 3.022182540694799 -0.777817459305203 0.0
  endloop
endfacet
facet normal -0.793353340291235 -0.608761429008721 -0.0
  outer loop
    vertex 3.022182540694799 -0.777817459305203 -0.9999999999999999
    vertex 2.8473720558371185 -0.5500000000000006 0.0
    vertex 2.8473720558371185 -0.5500000000000006 -0.9999999999999999
  endloop
endfacet
facet normal 0.0 0.0 1.0
  outer loop
    vertex -4.500000000000001 -6.000000000000001 0.9999999999999999
    vertex -5.000000000000001 5.5 0.9999999999999999
    vertex -5.000000000000001 -5.500000000000001 0.9999999999999999
  endloop
endfacet
facet normal 0.0 0.0 1.0
  outer loop
    vertex -5.000000000000001 5.5 0.9999999999999999
    vertex -4.500000000000001 -6.000000000000001 0.9999999999999999
    vertex -4.500000000000001 6.0 0.9999999999999999
  endloop
endfacet
facet normal 0.0 0.0 1.0
  outer loop
    vertex -4.500000000000001 6.0 0.9999999999999999
    vertex -4.500000000000001 -6.000000000000001 0.9999999999999999
    vertex 5.000000000000001 -6.000000000000001 0.9999999999999999
  endloop
endfacet
facet normal 0.0 0.0 1.0
  outer loop
    vertex -4.500000000000001 6.0 0.9999999999999999
    vertex 5.000000000000001 -6.000000000000001 0.9999999999999999
    vertex 5.0 6.0 0.9999999999999999
  endloop
endfacet
endsolid b
